<svg width="25" height="25" viewBox="0 0 25 25" fill="none" xmlns="http://www.w3.org/2000/svg">
<path d="M12.5 25C19.4036 25 25 19.4036 25 12.5C25 5.59644 19.4036 0 12.5 0C5.59644 0 0 5.59644 0 12.5C0 19.4036 5.59644 25 12.5 25Z" fill="#176AE6"/>
<path d="M17.0521 15.8225L17.5869 12.5498H13.7998V10.0545C13.7998 9.02402 14.0762 8.29102 15.5539 8.29102L17.7414 8.29199V4.99199C17.7414 4.99199 16.3531 4.6875 15.0508 4.6875C12.333 4.6875 10.5344 6.48242 10.5344 9.5293V12.55H7.258V15.8227H10.5336V24.8447C11.1744 24.9461 11.8308 25 12.4998 25C12.9389 25 13.3724 24.9768 13.7998 24.9326V15.8225H17.0521Z" fill="white"/>
</svg>
