<svg width="120" height="120" viewBox="0 0 120 120" fill="none" xmlns="http://www.w3.org/2000/svg">
<g filter="url(#filter0_d)">
<circle cx="60.0893" cy="58.1283" r="50.8715" fill="white"/>
</g>
<path d="M45.1101 88.0908V82.9428H47.5191C47.9885 82.9428 48.3808 83.0455 48.6961 83.2508C49.0188 83.4562 49.1801 83.7935 49.1801 84.2628C49.1801 84.5342 49.0958 84.7725 48.9271 84.9778C48.7658 85.1758 48.5495 85.3042 48.2781 85.3628V85.3738C48.6228 85.4105 48.9015 85.5425 49.1141 85.7698C49.3268 85.9972 49.4331 86.2942 49.4331 86.6608C49.4331 87.0935 49.2608 87.4418 48.9161 87.7058C48.5715 87.9625 48.1058 88.0908 47.5191 88.0908H45.1101ZM45.8581 87.4528H47.4311C47.7905 87.4528 48.0838 87.3832 48.3111 87.2438C48.5458 87.1045 48.6631 86.8882 48.6631 86.5948C48.6631 86.0155 48.2818 85.7258 47.5191 85.7258H45.8581V87.4528ZM45.8581 85.1098H47.4971C47.7538 85.1098 47.9738 85.0475 48.1571 84.9228C48.3478 84.7982 48.4431 84.6038 48.4431 84.3398C48.4431 83.8192 48.0838 83.5588 47.3651 83.5588H45.8581V85.1098ZM51.6998 90.7308V82.9428H52.4478V83.8338H52.4808C52.6861 83.5112 52.9648 83.2618 53.3168 83.0858C53.6688 82.9025 54.0355 82.8108 54.4168 82.8108C55.2088 82.8108 55.8505 83.0712 56.3418 83.5918C56.8331 84.1052 57.0788 84.7468 57.0788 85.5168C57.0788 86.2868 56.8331 86.9322 56.3418 87.4528C55.8505 87.9662 55.2088 88.2228 54.4168 88.2228C54.0428 88.2228 53.6798 88.1348 53.3278 87.9588C52.9758 87.7828 52.6935 87.5372 52.4808 87.2218H52.4478V90.7308H51.6998ZM54.3398 87.5848C54.9411 87.5848 55.4141 87.3905 55.7588 87.0018C56.1108 86.6058 56.2868 86.1108 56.2868 85.5168C56.2868 84.9228 56.1108 84.4278 55.7588 84.0318C55.4141 83.6358 54.9411 83.4378 54.3398 83.4378C53.7678 83.4378 53.2948 83.6358 52.9208 84.0318C52.5468 84.4278 52.3598 84.9228 52.3598 85.5168C52.3598 86.1108 52.5468 86.6058 52.9208 87.0018C53.2948 87.3905 53.7678 87.5848 54.3398 87.5848ZM60.7392 88.2228C60.2772 88.2228 59.8629 88.0945 59.4962 87.8378C59.1369 87.5738 58.9572 87.1815 58.9572 86.6608C58.9572 86.4042 59.0012 86.1805 59.0892 85.9898C59.1772 85.7918 59.3092 85.6305 59.4852 85.5058C59.6612 85.3812 59.8519 85.2822 60.0572 85.2088C60.2626 85.1282 60.5156 85.0695 60.8162 85.0328C61.1169 84.9888 61.3956 84.9632 61.6522 84.9558C61.9162 84.9412 62.2279 84.9338 62.5872 84.9338V84.7688C62.5872 83.8815 62.1289 83.4378 61.2122 83.4378C60.5962 83.4378 60.0866 83.6395 59.6832 84.0428L59.2652 83.5478C59.7566 83.0565 60.4312 82.8108 61.2892 82.8108C61.8759 82.8108 62.3562 82.9722 62.7302 83.2948C63.1042 83.6175 63.2912 84.0795 63.2912 84.6808V86.9358C63.2912 87.3978 63.3206 87.7828 63.3792 88.0908H62.7082C62.6569 87.7975 62.6312 87.5188 62.6312 87.2548H62.6092C62.1619 87.9002 61.5386 88.2228 60.7392 88.2228ZM60.9372 87.6068C61.4432 87.6068 61.8429 87.4418 62.1362 87.1118C62.4369 86.7818 62.5872 86.3785 62.5872 85.9018V85.5168H62.3672C62.0152 85.5168 61.6999 85.5315 61.4212 85.5608C61.1499 85.5828 60.8749 85.6305 60.5962 85.7038C60.3249 85.7772 60.1122 85.8908 59.9582 86.0448C59.8042 86.1988 59.7272 86.3932 59.7272 86.6278C59.7272 86.9652 59.8446 87.2145 60.0792 87.3758C60.3139 87.5298 60.5999 87.6068 60.9372 87.6068ZM68.9472 88.0908V85.9788C68.4925 86.1108 67.9902 86.1768 67.4402 86.1768C66.2815 86.1768 65.7022 85.6268 65.7022 84.5268V82.9428H66.4502V84.4388C66.4502 84.8715 66.5455 85.1648 66.7362 85.3188C66.9269 85.4728 67.2202 85.5498 67.6162 85.5498C68.0269 85.5498 68.4705 85.4875 68.9472 85.3628V82.9428H69.6952V88.0908H68.9472ZM72.339 88.0908V82.9428H73.087V87.0568H73.098L76.145 82.9428H76.959V88.0908H76.222V83.9328H76.2L73.153 88.0908H72.339Z" fill="url(#paint0_linear)"/>
<g clip-path="url(#clip0)">
<path d="M63.6239 58.7696C63.6239 59.3315 63.1632 59.7912 62.6001 59.7912H59.0554V63.3288C59.0554 63.8907 58.5947 64.3504 58.0317 64.3504C57.4686 64.3504 57.0079 63.8907 57.0079 63.3288V59.7912H53.2073C52.6442 59.7912 52.1835 59.3315 52.1835 58.7696C52.1835 58.2077 52.6442 57.7479 53.2073 57.7479H57.0079V54.1721C57.0079 53.6101 57.4686 53.1504 58.0317 53.1504C58.5947 53.1504 59.0554 53.6101 59.0554 54.1721V57.7479H62.6001C63.1632 57.7479 63.6239 58.2077 63.6239 58.7696ZM85.2633 68.5776L72.9144 75.8315C71.6475 76.5594 70.2526 76.9298 68.8322 76.9298C68.1411 76.9298 67.4501 76.8404 66.7719 76.6616C64.878 76.1635 63.2528 75.0397 62.1394 73.4561H48.3701C45.35 73.4561 42.893 71.0041 42.893 67.9901V50.7495C42.893 49.5745 43.2769 48.4124 43.9935 47.4673L48.2549 41.8098V40.2646C47.1672 39.6005 46.4761 38.4128 46.4761 37.1102V33.0107C46.4761 30.9801 48.1397 29.3199 50.1744 29.3199H66.2216C68.2563 29.3199 69.9199 30.9801 69.9199 33.0107V37.1102C69.9199 38.4128 69.2289 39.6133 68.1411 40.2646V41.8098L72.3897 47.4673C72.9911 48.2719 73.3622 49.2297 73.4646 50.2259C73.4774 50.3025 73.4902 50.3791 73.4902 50.4557C73.4902 50.4813 73.4902 50.5196 73.4902 50.5451C73.4902 50.609 73.4902 50.6856 73.4902 50.7495V56.8029L77.0733 54.5041C77.0861 54.4913 77.0989 54.4913 77.1117 54.4786C79.0056 53.393 81.1939 53.0993 83.3054 53.6612C85.4041 54.2231 87.17 55.5769 88.2577 57.4542C90.4972 61.3493 89.1535 66.3299 85.2633 68.5776ZM48.498 37.1102C48.498 37.7998 48.9203 38.4128 49.5602 38.6554H66.7847C67.4245 38.4128 67.8468 37.7998 67.8468 37.1102V33.0107C67.8468 32.104 67.1046 31.3633 66.196 31.3633H50.1488C49.2402 31.3633 48.498 32.104 48.498 33.0107V37.1102ZM61.2053 71.4127C60.8342 70.2634 60.655 69.1523 60.6934 68.1051H44.9405C45.0045 69.9441 46.5145 71.4127 48.3701 71.4127H61.2053ZM64.2125 62.3199L71.2124 58.2587L71.4299 58.1183V51.4774H47.4871C46.924 51.4774 46.4633 51.0176 46.4633 50.4557C46.4633 49.8938 46.924 49.4341 47.4871 49.4341H71.1612C71.046 49.1659 70.9053 48.9232 70.7389 48.6933L67.4757 44.3512H57.2894C56.7264 44.3512 56.2657 43.8915 56.2657 43.3296C56.2657 42.7677 56.7264 42.3079 57.2894 42.3079H66.0937C66.0809 42.2568 66.0809 42.193 66.0809 42.1419V40.686H50.2896V42.1419C50.2896 42.359 50.2128 42.5761 50.0848 42.7549L45.6315 48.6933C45.1836 49.2808 44.9405 50.0087 44.9405 50.7495V66.0617H61.0645C61.5764 64.5037 62.6641 63.2138 64.2125 62.3199ZM86.479 58.4758C85.66 57.0583 84.3419 56.0494 82.7679 55.6279C81.1939 55.2065 79.5559 55.4236 78.1483 56.2282L73.1191 59.4464L78.0075 67.888C78.289 68.3733 78.1227 68.999 77.6364 69.28C77.1501 69.561 76.5231 69.3949 76.2415 68.9096L71.3787 60.5064L65.2491 64.0695C62.6257 65.5765 62.0371 68.4499 63.6111 71.9491C65.3258 74.7587 69.0241 75.7038 71.8778 74.0563L84.2267 66.8025C87.1572 65.1295 88.1554 61.3876 86.479 58.4758Z" fill="url(#paint1_linear)"/>
</g>
<defs>
<filter id="filter0_d" x="0.217773" y="0.256836" width="119.743" height="119.743" filterUnits="userSpaceOnUse" color-interpolation-filters="sRGB">
<feFlood flood-opacity="0" result="BackgroundImageFix"/>
<feColorMatrix in="SourceAlpha" type="matrix" values="0 0 0 0 0 0 0 0 0 0 0 0 0 0 0 0 0 0 127 0"/>
<feOffset dy="2"/>
<feGaussianBlur stdDeviation="4.5"/>
<feColorMatrix type="matrix" values="0 0 0 0 0 0 0 0 0 0 0 0 0 0 0 0 0 0 0.25 0"/>
<feBlend mode="normal" in2="BackgroundImageFix" result="effect1_dropShadow"/>
<feBlend mode="normal" in="SourceGraphic" in2="effect1_dropShadow" result="shape"/>
</filter>
<linearGradient id="paint0_linear" x1="81.279" y1="78.0908" x2="83.9531" y2="93.358" gradientUnits="userSpaceOnUse">
<stop stop-color="#F7C3DC"/>
<stop offset="0.14693" stop-color="#F6A45D" stop-opacity="0.85307"/>
<stop offset="0.464644" stop-color="#EE7787"/>
<stop offset="0.763839" stop-color="#A95EA1"/>
<stop offset="1" stop-color="#273067"/>
</linearGradient>
<linearGradient id="paint1_linear" x1="42.893" y1="53.1248" x2="89.3415" y2="53.1248" gradientUnits="userSpaceOnUse">
<stop stop-color="#F7C3DC"/>
<stop offset="0.1384" stop-color="#F6A45D"/>
<stop offset="0.4262" stop-color="#EE7787"/>
<stop offset="0.6888" stop-color="#A95EA1"/>
<stop offset="1" stop-color="#273067"/>
</linearGradient>
<clipPath id="clip0">
<rect width="46.4486" height="47.6098" fill="white" transform="translate(42.893 29.3199)"/>
</clipPath>
</defs>
</svg>
