<svg width="21" height="21" viewBox="0 0 21 21" fill="none" xmlns="http://www.w3.org/2000/svg">
<path d="M10.5 21C16.299 21 21 16.299 21 10.5C21 4.70101 16.299 0 10.5 0C4.70101 0 0 4.70101 0 10.5C0 16.299 4.70101 21 10.5 21Z" fill="#C4C4C4"/>
<path d="M14.3239 13.2909L14.7731 10.5418H11.5919V8.44577C11.5919 7.58018 11.8241 6.96445 13.0654 6.96445L14.9029 6.96527V4.19327C14.9029 4.19327 13.7367 3.9375 12.6427 3.9375C10.3598 3.9375 8.84895 5.44523 8.84895 8.00461V10.542H6.0968V13.291H8.84829V20.8696C9.38658 20.9547 9.938 21 10.4999 21C10.8687 21 11.2329 20.9805 11.5919 20.9434V13.2909H14.3239Z" fill="#454545"/>
</svg>
