<svg width="21" height="21" viewBox="0 0 21 21" fill="none" xmlns="http://www.w3.org/2000/svg">
<path d="M17.325 0H3.675C1.64062 0 0 1.64062 0 3.675V17.325C0 19.3594 1.64062 21 3.675 21H17.325C19.3594 21 21 19.3594 21 17.325V3.675C21 1.64062 19.3594 0 17.325 0ZM17.7188 14.8641H14.8969C14.7328 14.8641 14.6016 14.7984 14.5031 14.7C14.0766 14.2078 12.7969 12.8625 12.2063 12.9609C11.7141 13.0594 11.6813 13.8797 11.7141 14.4047C11.7141 14.7 11.5172 14.9297 11.2219 14.9625C10.7297 14.9953 10.0406 14.9953 9.975 14.9953C7.97344 14.8641 6.79219 13.5188 5.64375 12.0422C4.4625 10.4672 3.54375 8.69531 2.8875 6.825C2.85469 6.69375 2.92031 6.52969 3.05156 6.49687C3.08438 6.49687 3.11719 6.49687 3.11719 6.49687H5.64375C5.74219 6.49687 5.84062 6.5625 5.87344 6.66094C6.16875 7.38281 7.31719 10.2047 8.36719 10.4344C9.15469 10.4344 8.85938 6.69375 7.875 6.69375C7.6125 6.69375 8.33438 6.23438 8.4 6.20156C9.31875 5.93906 10.3031 5.93906 11.2547 6.20156C11.7469 6.39844 11.8453 6.98906 11.8453 7.51406C11.8453 8.00625 11.2875 10.1391 12.0422 10.3688C13.0266 10.6641 14.3062 7.57969 14.6016 6.825C14.6344 6.72656 14.7328 6.66094 14.8313 6.66094H17.6203C17.7516 6.66094 17.8828 6.79219 17.8828 6.92344C17.8828 6.95625 17.8828 6.98906 17.85 7.02187C17.2594 8.33437 16.5703 9.61406 15.7828 10.7953C15.6516 10.9922 15.6516 11.2875 15.8484 11.4516C16.7344 12.3375 19.0312 14.8641 17.7188 14.8641Z" fill="#C4C4C4"/>
</svg>
