<svg width="145" height="129" viewBox="0 0 145 129" fill="none" xmlns="http://www.w3.org/2000/svg">
<g clip-path="url(#clip0)">
<path d="M0 75.5344C9.56044 106.612 38.4011 129.16 72.5 129.16C106.599 129.16 135.44 106.558 145 75.4811L72.5 37.5273L0 75.5344Z" fill="#F37254"/>
<path d="M68.5165 18.7903V101.787H68.5696L87.6639 82.0909C87.717 82.0909 87.717 82.0909 87.717 82.1442C87.7701 87.1017 91.7802 91.0729 96.6932 91.0729C101.606 91.0729 105.669 87.0483 105.669 82.0643V18.7903H74.3324H68.5165Z" fill="white"/>
<path d="M67.5603 103.04L67.5072 101.787V17.8042H106.625V82.0643C106.625 87.5815 102.137 92.0858 96.64 92.0858C91.9129 92.0858 87.9294 88.7542 86.9202 84.2765L69.0741 102.72L67.5603 103.04ZM69.5255 19.8032V99.3354L87.0265 81.2914L87.6638 80.9716L88.195 81.2647C88.5136 81.478 88.7261 81.7978 88.7261 82.1443C88.7792 86.542 92.3378 90.0869 96.7197 90.0869C101.102 90.0869 104.713 86.5154 104.713 82.0643V19.8032H69.5255Z" fill="#191919"/>
<path d="M68.5695 101.788C68.5164 101.788 68.5695 101.841 68.5695 101.841L99.6144 90.5667L68.5695 101.788Z" fill="white"/>
<path d="M67.9322 102.987L67.6135 102.134C67.4542 101.654 67.6666 101.095 68.0915 100.855L68.2509 100.775L99.2957 89.5806L99.9862 91.4729L68.8882 102.747L67.9322 102.987Z" fill="#191919"/>
<path d="M97.8616 26.6797H76.1913V28.7053H97.8616V26.6797Z" fill="#191919"/>
<path d="M97.8616 32.4102H76.1913V34.4358H97.8616V32.4102Z" fill="#191919"/>
<path d="M97.8616 38.167H76.1913V40.1926H97.8616V38.167Z" fill="#191919"/>
<path d="M97.8616 44.0042H76.1913V46.0298H97.8616V44.0042Z" fill="#191919"/>
<path d="M97.8616 49.761H76.1913V51.7866H97.8616V49.761Z" fill="#191919"/>
<path d="M97.8616 55.5981H76.1913V57.6238H97.8616V55.5981Z" fill="#191919"/>
<path d="M97.8616 61.3284H76.1913V63.354H97.8616V61.3284Z" fill="#191919"/>
<path d="M84.7691 75.4544H41.9595C40.8442 75.4544 39.9412 74.5748 39.9412 73.4287V46.9358C39.9412 45.8164 40.8176 44.9102 41.9595 44.9102H84.7691C85.8844 44.9102 86.7874 45.7897 86.7874 46.9358V73.4287C86.7343 74.5215 85.8579 75.4544 84.7691 75.4544Z" fill="white"/>
<path d="M84.7691 76.4673H41.9596C40.3131 76.4673 38.9587 75.108 38.9587 73.4555V46.9359C38.9587 45.2834 40.3131 43.9241 41.9596 43.9241H84.7691C86.4157 43.9241 87.7701 45.2834 87.7701 46.9359V73.4288C87.7435 75.0813 86.4157 76.4673 84.7691 76.4673ZM41.9596 45.9497C41.4019 45.9497 40.9504 46.4028 40.9504 46.9625V73.4555C40.9504 74.0152 41.4019 74.4683 41.9596 74.4683H84.7691C85.3268 74.4683 85.7783 74.0152 85.7783 73.4555V46.9359C85.7783 46.3761 85.3268 45.923 84.7691 45.923H41.9596V45.9497Z" fill="#191919"/>
<path d="M69.2867 68.6045L28.1503 56.7706C27.1146 56.4507 26.4772 55.358 26.7959 54.2652L34.0459 28.8117C34.3646 27.7722 35.4534 27.1326 36.5422 27.4524L77.6787 39.2863C78.7144 39.6061 79.3518 40.6989 79.0331 41.7916L71.7831 67.2452C71.4644 68.3379 70.3756 68.9243 69.2867 68.6045Z" fill="white"/>
<path d="M69.8444 69.6972C69.5523 69.6972 69.2867 69.6439 68.9946 69.564L27.8847 57.7301C26.2913 57.277 25.3618 55.5978 25.8398 53.972L33.0898 28.5185C33.3289 27.7456 33.8069 27.1059 34.5239 26.7061C35.2144 26.3063 36.0376 26.2264 36.8078 26.4662L77.9442 38.3001C78.7144 38.54 79.3517 39.0197 79.7501 39.7394C80.1484 40.4324 80.2281 41.2586 79.9891 42.0315L72.7391 67.485C72.5001 68.258 72.0221 68.8976 71.305 69.2974C70.8536 69.564 70.3224 69.6972 69.8444 69.6972ZM35.9845 28.3852C35.8252 28.3852 35.6658 28.4385 35.5065 28.5185C35.2675 28.6518 35.1082 28.8916 35.0285 29.1315L27.7785 54.585C27.6191 55.1181 27.9378 55.6778 28.469 55.8377L69.5789 67.645C69.8179 67.7249 70.11 67.6983 70.349 67.565C70.588 67.4317 70.7474 67.1919 70.827 66.952L78.077 41.4985C78.1567 41.2586 78.1301 40.9654 77.9974 40.7255C77.8646 40.4857 77.6256 40.3257 77.3865 40.2458L36.2501 28.4119C36.1439 28.3852 36.0642 28.3852 35.9845 28.3852Z" fill="#191919"/>
<path d="M55.27 48.7216C56.2173 45.4108 54.3109 41.9561 51.012 41.0055C47.7131 40.0548 44.2709 41.9681 43.3237 45.2789C42.3764 48.5897 44.2828 52.0444 47.5817 52.995C50.8806 53.9457 54.3228 52.0324 55.27 48.7216Z" fill="#F37254"/>
<path d="M49.3159 54.2652C48.6254 54.2652 47.9615 54.1852 47.2975 53.972C45.4651 53.439 43.8983 52.2129 42.9688 50.5071C42.0393 48.828 41.8003 46.8557 42.3314 44.99C42.8626 43.1243 44.0842 41.5784 45.7838 40.6456C47.4569 39.7127 49.4221 39.4728 51.2811 40.0059C53.1135 40.539 54.6803 41.765 55.6098 43.4708C56.5393 45.1499 56.7783 47.1222 56.2472 48.9879C55.716 50.827 54.4944 52.3995 52.7948 53.3323C51.706 53.9454 50.564 54.2652 49.3159 54.2652ZM49.3159 41.7383C48.4395 41.7383 47.5897 41.9782 46.793 42.378C45.5979 43.071 44.6684 44.1904 44.2966 45.523C43.8983 46.8557 44.0576 48.2949 44.7481 49.521C45.4386 50.7204 46.554 51.6532 47.8818 52.0263C49.2096 52.3995 50.6437 52.2662 51.8653 51.5733C53.0604 50.8803 53.9899 49.7609 54.3616 48.4282C54.76 47.0956 54.6007 45.6563 53.9102 44.4303C53.2197 43.2309 52.1043 42.298 50.7765 41.9249C50.2719 41.8449 49.7939 41.7383 49.3159 41.7383Z" fill="#191919"/>
<path d="M62.5283 50.7795C63.4755 47.4686 61.5691 44.014 58.2702 43.0633C54.9713 42.1126 51.5292 44.0259 50.5819 47.3368C49.6347 50.6476 51.541 54.1022 54.8399 55.0529C58.1388 56.0036 61.581 54.0903 62.5283 50.7795Z" fill="#F8BCCE"/>
<path d="M56.5395 56.3172C55.9021 56.3172 55.2116 56.2372 54.5211 56.024C50.6704 54.9312 48.4662 50.88 49.555 47.042C50.0862 45.2029 51.3078 43.6304 53.0074 42.6976C54.6805 41.7647 56.6457 41.5248 58.5047 42.0579C62.3554 43.1507 64.5596 47.2019 63.4708 51.0399C62.5413 54.2649 59.6731 56.3172 56.5395 56.3172ZM56.4863 43.817C55.61 43.817 54.7601 44.0569 53.9634 44.4567C52.7684 45.1496 51.8389 46.2691 51.4671 47.6017C50.6704 50.3736 52.2638 53.3321 55.0257 54.0784C57.7876 54.8779 60.7354 53.2788 61.479 50.5069C62.2757 47.735 60.6823 44.7765 57.9204 44.0302C57.4955 43.8969 57.0175 43.817 56.4863 43.817Z" fill="#191919"/>
<path d="M49.3161 54.2652C48.6256 54.2652 47.9617 54.1852 47.2978 53.972C45.4653 53.439 43.8985 52.2129 42.969 50.5071C42.0395 48.828 41.8005 46.8557 42.3316 44.99C42.8628 43.1243 44.0844 41.5784 45.784 40.6456C47.4571 39.7127 49.4223 39.4728 51.2813 40.0059C53.1137 40.539 54.6805 41.765 55.61 43.4708C56.5395 45.1499 56.7785 47.1222 56.2474 48.9879C55.7163 50.827 54.4946 52.3995 52.795 53.3323C51.7062 53.9454 50.5642 54.2652 49.3161 54.2652ZM49.3161 41.7383C48.4397 41.7383 47.5899 41.9782 46.7932 42.378C45.5981 43.071 44.6686 44.1904 44.2968 45.523C43.8985 46.8557 44.0578 48.2949 44.7483 49.521C45.4388 50.7204 46.5542 51.6532 47.882 52.0263C49.2098 52.3995 50.6439 52.2662 51.8655 51.5733C53.0606 50.8803 53.9901 49.7609 54.3619 48.4282C54.7602 47.0956 54.6009 45.6563 53.9104 44.4303C53.2199 43.2309 52.1045 42.298 50.7767 41.9249C50.2721 41.8449 49.7941 41.7383 49.3161 41.7383Z" fill="#191919"/>
<path d="M52.609 94.7511C52.4497 94.7511 52.3169 94.6978 52.1576 94.6712C50.9625 94.1114 49.794 93.4718 48.6255 92.7788C48.1475 92.4856 47.9882 91.8993 48.2537 91.4195C48.5459 90.9398 49.1301 90.7798 49.6081 91.0464C50.697 91.686 51.8123 92.299 52.9808 92.8588C53.4589 93.0986 53.6979 93.7116 53.4589 94.1914C53.3261 94.5379 52.9543 94.7511 52.609 94.7511Z" fill="#191919"/>
<path d="M45.1465 90.1935C44.9341 90.1935 44.7482 90.1135 44.5357 89.9802C36.0376 83.6102 29.9029 74.4416 27.2473 64.1802C27.1145 63.6472 27.4597 63.0874 27.9643 62.9808C28.4954 62.8476 29.0531 63.1941 29.1594 63.7005C31.6823 73.5354 37.5779 82.3042 45.7308 88.4344C46.1823 88.7542 46.2619 89.3939 45.9432 89.847C45.7308 90.0602 45.4121 90.1935 45.1465 90.1935Z" fill="#191919"/>
<path d="M64.4002 91.7925C64.3205 91.7925 64.2674 91.7925 64.1877 91.7392C63.1786 91.5259 62.1694 91.2594 61.2134 90.9662C60.6822 90.8063 60.3635 90.2466 60.5229 89.7135C60.6822 89.1805 61.2399 88.8606 61.7711 89.0206C62.7005 89.3137 63.6566 89.5536 64.6126 89.7402C65.1703 89.8735 65.489 90.3799 65.3828 90.9396C65.2765 91.4726 64.8251 91.7925 64.4002 91.7925Z" fill="#191919"/>
<path d="M57.2032 89.5003C57.0704 89.5003 56.9111 89.447 56.8049 89.4203C51.9981 87.3681 47.6959 84.4362 44.0045 80.7315C43.6061 80.3317 43.6061 79.692 44.0045 79.3189C44.4028 78.9191 45.0402 78.9191 45.412 79.3189C48.8909 82.8637 53.0072 85.6356 57.575 87.5813C58.1061 87.7945 58.3452 88.3809 58.1061 88.9139C57.9734 89.3137 57.6016 89.5003 57.2032 89.5003Z" fill="#191919"/>
<path d="M130.022 48.5082C133.366 48.5082 136.077 45.7875 136.077 42.4314C136.077 39.0752 133.366 36.3545 130.022 36.3545C126.678 36.3545 123.967 39.0752 123.967 42.4314C123.967 45.7875 126.678 48.5082 130.022 48.5082Z" fill="#F37254"/>
<path d="M8.0201 49.8409C9.58946 49.8409 10.8617 48.5641 10.8617 46.9891C10.8617 45.414 9.58946 44.1372 8.0201 44.1372C6.45074 44.1372 5.17853 45.414 5.17853 46.9891C5.17853 48.5641 6.45074 49.8409 8.0201 49.8409Z" fill="#F37254"/>
</g>
<defs>
<clipPath id="clip0">
<rect width="145" height="129" fill="white"/>
</clipPath>
</defs>
</svg>
