<svg width="123" height="110" viewBox="0 0 123 110" fill="none" xmlns="http://www.w3.org/2000/svg">
<path fill-rule="evenodd" clip-rule="evenodd" d="M0 78.7205C11.7038 97.4882 32.6653 110 56.5701 110C93.2426 110 123 80.5128 123 44.1714C123 33.6979 120.517 23.7868 116.119 15L0 78.7205Z" fill="#5EC0C6"/>
<path d="M92.0368 3.75781H50.7386V75.6043H92.0368V3.75781Z" fill="#17174C"/>
<path d="M51.9104 3.99065H90.8658V74.4261H87.923L87.9302 7.03208H54.846V9.56847L55.8118 10.0207V7.99893H86.9644V61.6721L86.9388 75.6042H92.0376V2.8125H50.7386V7.64517L51.9104 8.19342V3.99065Z" fill="#13458E"/>
<path d="M88.5045 73.8107H90.2922V4.6062H52.4839V8.46241L54.2716 9.2996V6.41745H88.5045V73.8107Z" fill="#17174C"/>
<path d="M34.1675 86.4286H33.0068C32.5675 86.4286 32.208 86.0684 32.208 85.6282V39.8667C32.208 39.4265 32.2088 38.7062 32.2096 38.266L32.2759 0.800376C32.2767 0.360169 32.637 0 33.0763 0H34.237" fill="#000028"/>
<path d="M33.8519 38.3466C33.8519 38.7868 33.8519 39.5071 33.8519 39.9473V85.832C33.8519 86.2722 34.1786 86.4819 34.578 86.2987L57.0844 75.9386C57.4838 75.7545 57.8105 75.2447 57.8105 74.8045V11.6244C57.8105 11.1842 57.4838 10.6736 57.0844 10.4903L34.5772 0.129418C34.1778 -0.0546681 33.8511 0.155831 33.8511 0.596037V38.3466H33.8519Z" fill="#17174C"/>
<path d="M35.2555 2.87671C35.2555 2.4365 35.5822 2.2268 35.9816 2.41009L55.6801 11.4775C56.0795 11.6616 56.4062 12.1715 56.4062 12.6117V73.8156C56.4062 74.2558 56.0795 74.7664 55.6801 74.9497L35.9816 84.0172C35.5822 84.2013 35.2555 83.9908 35.2555 83.5506V2.87671Z" fill="#13458E"/>
<path d="M37.6502 40.8525V80.7256C37.6502 81.101 37.9138 81.2867 38.2366 81.1378L53.4251 74.1465C53.7478 73.9985 54.0114 73.5695 54.0114 73.1949V42.4605" fill="#17174C"/>
<path d="M37.9437 37.4622V6.67892C37.9437 6.34116 38.1809 6.17388 38.4709 6.30754L53.7768 13.3532C54.0668 13.4869 54.304 13.8727 54.304 14.2097V39.203" fill="#17174C"/>
<path d="M37.155 38.2886C37.155 39.0586 37.0081 39.8181 36.2572 39.8181C35.5055 39.8181 34.8968 39.1938 34.8968 38.4231C34.8968 37.6523 35.0813 37.0977 35.8322 37.0977C36.5839 37.0985 37.155 37.5187 37.155 38.2886Z" fill="#52CAB6"/>
<path d="M37.5137 38.3404C37.5137 39.1103 37.3667 39.8699 36.6158 39.8699C35.8642 39.8699 35.2555 39.2456 35.2555 38.4748C35.2555 37.7041 35.44 37.1494 36.1909 37.1494C36.9425 37.1502 37.5137 37.5696 37.5137 38.3404Z" fill="white"/>
<path d="M52.484 37.098L40.176 35.4228V9.31055L52.484 14.3401V37.098Z" fill="white"/>
<path d="M52.484 71.7855L40.176 78.1661V43.998L52.484 44.72V71.7855Z" fill="white"/>
<path d="M7.5 55C10.5376 55 13 52.5376 13 49.5C13 46.4624 10.5376 44 7.5 44C4.46243 44 2 46.4624 2 49.5C2 52.5376 4.46243 55 7.5 55Z" fill="#5EC0C6"/>
<path d="M104.5 14C105.881 14 107 12.8807 107 11.5C107 10.1193 105.881 9 104.5 9C103.119 9 102 10.1193 102 11.5C102 12.8807 103.119 14 104.5 14Z" fill="#5EC0C6"/>
<path d="M87 9H58V74H87V9Z" fill="black" fill-opacity="0.37" stroke="#141414" stroke-miterlimit="10"/>
<path fill-rule="evenodd" clip-rule="evenodd" d="M60.8154 40.9133C60.134 40.9133 59.4526 40.9934 58.8112 41.1142V59.5869C59.4526 59.7078 60.134 59.7878 60.8154 59.7878C66.026 59.7878 70.2341 55.5714 70.2341 50.3506C70.2341 45.1297 66.026 40.9133 60.8154 40.9133Z" fill="#F37254"/>
<path fill-rule="evenodd" clip-rule="evenodd" d="M60.8155 60.7922C60.0942 60.7922 59.3329 60.7122 58.6108 60.5513L57.8096 60.3905V40.2714L58.6108 40.1105C59.3321 39.9497 60.0534 39.8696 60.8155 39.8696C66.5869 39.8696 71.2359 44.5678 71.2359 50.3105C71.2359 56.0532 66.5469 60.7922 60.8155 60.7922ZM59.8138 58.7441C60.1341 58.7841 60.4552 58.7841 60.8155 58.7841C65.4645 58.7841 69.2325 55.0095 69.2325 50.3505C69.2325 45.6916 65.4653 41.917 60.8155 41.917C60.4952 41.917 60.174 41.917 59.8138 41.957V58.7441Z" fill="#191919"/>
<path d="M83.8819 34.603C85.3249 34.603 86.4948 33.4309 86.4948 31.985C86.4948 30.5391 85.3249 29.3669 83.8819 29.3669C82.4388 29.3669 81.269 30.5391 81.269 31.985C81.269 33.4309 82.4388 34.603 83.8819 34.603Z" fill="#FFDE17"/>
<path fill-rule="evenodd" clip-rule="evenodd" d="M83.8819 35.0733C82.19 35.0733 80.7993 33.6798 80.7993 31.9846C80.7993 30.2894 82.19 28.896 83.8819 28.896C85.5738 28.896 86.9645 30.2894 86.9645 31.9846C86.9645 33.6798 85.5738 35.0733 83.8819 35.0733ZM83.8819 29.8372C82.6973 29.8372 81.7387 30.7977 81.7387 31.9846C81.7387 33.1716 82.6973 34.1321 83.8819 34.1321C85.0665 34.1321 86.0251 33.1716 86.0251 31.9846C86.0243 30.8169 85.0657 29.8372 83.8819 29.8372Z" fill="#191919"/>
</svg>
