<svg width="150" height="133" viewBox="0 0 150 133" fill="none" xmlns="http://www.w3.org/2000/svg">
<path fill-rule="evenodd" clip-rule="evenodd" d="M0.247995 77.6868C10.0827 109.673 39.7935 132.917 74.9174 132.917C110.041 132.917 139.752 109.673 149.587 77.6868H0.247995Z" fill="#24B683"/>
<path d="M76.7252 88.1919C88.9733 75.9154 88.9697 56.0076 76.7172 43.7266C64.4647 31.4456 44.6029 31.4421 32.3548 43.7186C20.1066 55.9952 20.1102 75.9029 32.3627 88.1839C44.6153 100.465 64.477 100.468 76.7252 88.1919Z" fill="white"/>
<path fill-rule="evenodd" clip-rule="evenodd" d="M54.5455 98.4445C46.2397 98.4445 37.9339 95.2956 31.6116 88.9563C18.967 76.2778 18.967 55.6856 31.6116 43.0071C37.7273 36.875 45.8678 33.4775 54.5455 33.4775C63.2232 33.4775 71.3224 36.875 77.4794 43.0071C83.5951 49.1392 86.9835 57.3015 86.9835 66.0025C86.9835 74.7034 83.5951 82.8243 77.4794 88.9978C71.1158 95.2956 62.8513 98.4445 54.5455 98.4445ZM33.0992 44.4573C21.2811 56.3071 21.2811 75.6149 33.0992 87.5062C44.9174 99.356 64.1736 99.356 76.0331 87.5062C81.7769 81.747 84.9174 74.1233 84.9174 66.0025C84.9174 57.8816 81.7769 50.2165 76.0331 44.4987C70.2893 38.7395 62.686 35.5906 54.5868 35.5906C46.4877 35.5906 38.8017 38.6981 33.0992 44.4573Z" fill="#191919"/>
<path fill-rule="evenodd" clip-rule="evenodd" d="M116.529 11.3529L89.9587 37.9943C87.8926 40.066 84.5042 40.066 82.4381 37.9943C80.3719 35.9227 80.3719 32.5252 82.4381 30.4535L109.008 3.81208C110.95 1.86472 114.091 1.86472 115.992 3.81208L116.529 4.35071C118.43 6.29806 118.43 9.44697 116.529 11.3529Z" fill="white"/>
<path fill-rule="evenodd" clip-rule="evenodd" d="M86.1571 40.6044C84.4628 40.6044 82.8513 39.9415 81.6529 38.7399C80.4546 37.5384 79.7934 35.9225 79.7934 34.2237C79.7934 32.525 80.4546 30.9091 81.6529 29.7075L108.223 3.06611C109.339 1.94742 110.868 1.32593 112.438 1.32593C114.05 1.32593 115.537 1.94742 116.653 3.06611L117.19 3.60474C118.306 4.72344 118.926 6.25646 118.926 7.83091C118.926 9.40536 118.306 10.9384 117.19 12.0571L90.6199 38.6985C89.4628 39.9415 87.8513 40.6044 86.1571 40.6044ZM112.479 3.39758C111.446 3.39758 110.455 3.81191 109.711 4.5577L83.1405 31.1991C82.3141 32.0278 81.9009 33.1051 81.9009 34.2237C81.9009 35.3839 82.3554 36.4611 83.1405 37.2484C83.967 38.077 85.0414 38.4913 86.1571 38.4913C87.3141 38.4913 88.3885 38.0356 89.1736 37.2484L115.744 10.6069C116.488 9.86113 116.901 8.86674 116.901 7.83091C116.901 6.79509 116.488 5.80069 115.744 5.0549L115.207 4.51627C114.504 3.81191 113.512 3.39758 112.479 3.39758Z" fill="#191919"/>
<path d="M81.6421 37.2979L75.9736 42.9795L77.4351 44.4444L83.1036 38.7627L81.6421 37.2979Z" fill="#191919"/>
<path d="M116.254 11.6503C118.335 9.56381 118.335 6.18027 116.252 4.09299C114.17 2.00572 110.794 2.00511 108.712 4.09164C106.631 6.17816 106.631 9.5617 108.714 11.649C110.796 13.7363 114.172 13.7369 116.254 11.6503Z" fill="#44C7F3"/>
<path fill-rule="evenodd" clip-rule="evenodd" d="M112.479 14.2528C110.785 14.2528 109.174 13.5899 107.975 12.3883C106.777 11.1868 106.116 9.57089 106.116 7.87214C106.116 6.17339 106.777 4.5575 107.975 3.35594C110.455 0.86996 114.504 0.86996 116.983 3.35594C119.463 5.84192 119.463 9.90236 116.983 12.3883C115.785 13.5899 114.174 14.2528 112.479 14.2528ZM112.479 3.56311C111.364 3.56311 110.289 3.97744 109.463 4.8061C108.636 5.63476 108.223 6.71202 108.223 7.83071C108.223 8.99083 108.678 10.0681 109.463 10.8553C110.289 11.684 111.364 12.0983 112.479 12.0983C113.595 12.0983 114.711 11.6425 115.496 10.8553C117.19 9.15656 117.19 6.46342 115.496 4.76466C114.669 3.97744 113.595 3.56311 112.479 3.56311Z" fill="#191919"/>
<path fill-rule="evenodd" clip-rule="evenodd" d="M29.6694 68.4058C30.2066 73.9993 32.6033 79.3856 36.8595 83.6532C46.6116 93.4314 62.438 93.4314 72.1901 83.6532C76.4463 79.3856 78.843 73.9578 79.3802 68.4058C79.3802 68.4058 72.3141 65.5884 54.9174 65.5884C37.5207 65.5884 29.6694 68.4058 29.6694 68.4058Z" fill="#24B683"/>
<path fill-rule="evenodd" clip-rule="evenodd" d="M54.5454 92.0226C47.8925 92.0226 41.2396 89.4952 36.157 84.3989C31.2396 79.4684 28.5123 72.922 28.5123 65.9612C28.5123 59.0005 31.1983 52.4541 36.1156 47.5235L36.8594 48.2693L36.1156 47.5235C46.2396 37.331 62.7685 37.331 72.8925 47.5235C77.8099 52.4541 80.4958 59.0005 80.4958 65.9612C80.4958 72.922 77.8099 79.4684 72.8925 84.3989C67.8512 89.4952 61.1983 92.0226 54.5454 92.0226ZM54.5454 41.9715C48.4297 41.9715 42.2727 44.3332 37.6032 49.0151C33.0991 53.5313 30.5785 59.5806 30.5785 66.0027C30.5785 72.4248 33.0578 78.4326 37.6032 82.9902C42.2727 87.6721 48.3884 89.9924 54.5454 90.0338C60.6611 90.0338 66.8181 87.7136 71.4876 82.9902C75.9917 78.474 78.5124 72.4248 78.5124 66.0027C78.5124 59.5806 76.033 53.5728 71.4876 49.0151C66.8181 44.2918 60.6611 41.9715 54.5454 41.9715Z" fill="#191919"/>
<path fill-rule="evenodd" clip-rule="evenodd" d="M48.4297 65.8787L54.876 74.4968C54.9173 74.5382 54.9173 74.5382 54.9587 74.5382L55 74.4968L61.4463 65.8787C64.0083 62.2741 63.1818 57.2607 59.5868 54.6504C55.9917 52.0815 50.9917 52.9102 48.3884 56.5149C47.3967 57.8822 46.8595 59.5395 46.8595 61.1968C46.8595 62.8541 47.4793 64.5114 48.4297 65.8787Z" fill="#F37254"/>
<path fill-rule="evenodd" clip-rule="evenodd" d="M54.9587 75.574C54.5455 75.574 54.2976 75.4083 54.1736 75.2426L54.091 75.1183L47.6034 66.4588C46.4877 64.9257 45.9091 63.0198 45.9091 61.1968C45.9091 59.2908 46.529 57.4264 47.6034 55.8933C49.0083 53.946 51.1158 52.6201 53.4711 52.2472C55.8678 51.8329 58.2645 52.413 60.2067 53.8217C62.1901 55.2304 63.4711 57.3435 63.8843 59.7052C64.2976 62.1083 63.7191 64.5114 62.3141 66.4588L55.7438 75.2011L55.4546 75.4912L54.9587 75.574ZM49.2562 65.2572L54.9587 72.8394L60.6612 65.2572C61.7356 63.7656 62.1488 61.9011 61.8596 60.0781C61.5703 58.2136 60.5372 56.5977 59.0496 55.5204C57.5207 54.4432 55.7025 53.9874 53.843 54.3189C51.9835 54.6089 50.3719 55.6447 49.2976 57.1363C48.4298 58.2964 47.9753 59.7466 47.9753 61.1968C47.9753 62.6055 48.4298 64.0556 49.2562 65.2572Z" fill="#191919"/>
<path fill-rule="evenodd" clip-rule="evenodd" d="M48.9671 84.4407C48.8844 84.4407 48.8018 84.4407 48.6778 84.3992C45.5786 83.5291 42.6861 81.8718 40.4133 79.593C38.6365 77.8114 37.2315 75.6983 36.2811 73.3781C33.4712 66.3759 35.0828 58.4207 40.4133 53.0759C40.8266 52.6616 41.4877 52.6616 41.8596 53.0759C42.2728 53.4902 42.2728 54.1531 41.8596 54.526C37.1489 59.2908 35.7026 66.3344 38.1819 72.5908C39.0084 74.6625 40.2481 76.527 41.8596 78.1014C43.8844 80.1316 46.4464 81.6232 49.215 82.4105C49.7522 82.5762 50.0828 83.1148 49.9588 83.6949C49.8348 84.1506 49.4216 84.4407 48.9671 84.4407Z" fill="white"/>
<path d="M54.9587 85.228C55.5977 85.228 56.1157 84.7086 56.1157 84.0678C56.1157 83.4271 55.5977 82.9077 54.9587 82.9077C54.3197 82.9077 53.8016 83.4271 53.8016 84.0678C53.8016 84.7086 54.3197 85.228 54.9587 85.228Z" fill="white"/>
<path fill-rule="evenodd" clip-rule="evenodd" d="M134.959 52.0812C134.38 52.0812 133.926 51.6255 133.926 51.0454C133.926 33.7678 127.397 17.3189 115.496 4.80615C115.083 4.39182 115.124 3.72889 115.537 3.35599C115.95 2.94166 116.612 2.9831 116.983 3.39743C129.215 16.3245 135.992 33.2292 135.992 51.0454C135.992 51.6255 135.537 52.0812 134.959 52.0812Z" fill="#191919"/>
<path fill-rule="evenodd" clip-rule="evenodd" d="M133.347 66.9972C133.265 66.9972 133.182 66.9972 133.141 66.9558C132.603 66.8315 132.232 66.2929 132.355 65.7128C132.851 63.3926 133.265 61.0723 133.512 58.7107C133.595 58.1306 134.091 57.7163 134.67 57.7991C135.248 57.882 135.661 58.3792 135.579 58.9593C135.289 61.3624 134.876 63.8069 134.38 66.1686C134.215 66.6658 133.802 66.9972 133.347 66.9972Z" fill="#191919"/>
<path fill-rule="evenodd" clip-rule="evenodd" d="M17.1074 62.0666C16.6116 62.0666 16.1983 61.7351 16.1157 61.2379C15.4545 57.9233 15.124 54.4843 15.124 51.0454C15.124 38.9055 19.3802 27.0971 27.1074 17.7747C27.4793 17.3189 28.1405 17.2775 28.5537 17.6504C29.0083 18.0233 29.0496 18.6862 28.6777 19.1005C21.2397 28.0501 17.1487 39.4027 17.1487 51.0454C17.1487 54.3186 17.4793 57.6333 18.0992 60.8236C18.2231 61.4037 17.8512 61.9423 17.2727 62.0252C17.2314 62.0252 17.1487 62.0666 17.1074 62.0666Z" fill="#191919"/>
<path fill-rule="evenodd" clip-rule="evenodd" d="M31.3637 15.6618C31.1158 15.6618 30.8265 15.5789 30.6199 15.3718C30.2067 14.9574 30.2067 14.2945 30.6199 13.9216C30.7439 13.7973 30.9092 13.6316 31.0332 13.5073C31.4464 13.1344 31.8596 12.7201 32.2728 12.3472C32.686 11.9743 33.3472 12.0157 33.7191 12.43C34.091 12.8444 34.0497 13.5073 33.6365 13.8802C33.2232 14.2531 32.8513 14.626 32.4381 14.9989C32.3141 15.1232 32.1489 15.2475 32.0249 15.4132C31.9009 15.5375 31.653 15.6618 31.3637 15.6618Z" fill="#191919"/>
<path d="M54.9587 63.8483C56.5106 63.8483 57.7686 62.5869 57.7686 61.0308C57.7686 59.4748 56.5106 58.2134 54.9587 58.2134C53.4068 58.2134 52.1488 59.4748 52.1488 61.0308C52.1488 62.5869 53.4068 63.8483 54.9587 63.8483Z" fill="white"/>
<path fill-rule="evenodd" clip-rule="evenodd" d="M54.9586 64.884C52.8512 64.884 51.1157 63.1438 51.1157 61.0308C51.1157 58.9177 52.8512 57.1775 54.9586 57.1775C57.0661 57.1775 58.8016 58.9177 58.8016 61.0308C58.8016 63.1438 57.0661 64.884 54.9586 64.884ZM54.9586 59.2077C53.9669 59.2077 53.1818 59.9949 53.1818 60.9893C53.1818 61.9837 53.9669 62.7709 54.9586 62.7709C55.9504 62.7709 56.7355 61.9837 56.7355 60.9893C56.7355 59.9949 55.9504 59.2077 54.9586 59.2077Z" fill="#191919"/>
<path d="M105.537 61.6939C108.983 61.6939 111.777 58.8929 111.777 55.4375C111.777 51.9822 108.983 49.1812 105.537 49.1812C102.091 49.1812 99.2976 51.9822 99.2976 55.4375C99.2976 58.8929 102.091 61.6939 105.537 61.6939Z" fill="#24B683"/>
<path d="M62.9752 19.1835C64.3673 19.1835 65.4958 18.0519 65.4958 16.6561C65.4958 15.2602 64.3673 14.1287 62.9752 14.1287C61.5831 14.1287 60.4545 15.2602 60.4545 16.6561C60.4545 18.0519 61.5831 19.1835 62.9752 19.1835Z" fill="#24B683"/>
</svg>
