<svg width="23" height="23" viewBox="0 0 23 23" fill="none" xmlns="http://www.w3.org/2000/svg">
<path d="M11.5813 12.1235C8.9919 12.1235 6.89276 10.0593 6.89276 7.51311C6.89276 4.96687 8.9919 2.90274 11.5813 2.90274C14.1708 2.90274 16.2699 4.96687 16.2699 7.51311C16.2699 10.0593 14.1708 12.1235 11.5813 12.1235Z" fill="#52CAB6"/>
<path d="M11.5005 0C17.8518 0 23.001 5.06323 23.001 11.3086C23.001 17.5539 17.8518 22.6171 11.5005 22.6171C5.14916 22.6171 0 17.5539 0 11.3086C-0.00131989 5.06323 5.14784 0 11.5005 0ZM11.4833 13.4535C14.6966 13.4535 17.5879 14.7991 19.6109 16.9479C20.7352 15.3545 21.395 13.4211 21.395 11.3358C21.395 5.8898 16.9057 1.47537 11.3672 1.47537C5.82876 1.47537 1.33941 5.8898 1.33941 11.3358C1.33941 13.4833 2.04013 15.4687 3.22515 17.0881C5.25473 14.8575 8.20144 13.4535 11.4833 13.4535Z" fill="#52CAB6"/>
</svg>
