<svg width="152" height="154" viewBox="0 0 152 154" fill="none" xmlns="http://www.w3.org/2000/svg">
<g filter="url(#filter0_d)">
<circle cx="76" cy="72" r="59" fill="white"/>
</g>
<path d="M48.0995 109.672V107.351H48.6935C49.2435 106.647 49.5185 105.602 49.5185 104.216V102.852H53.2585V107.351H54.0835V109.672H53.3905V108H48.7925V109.672H48.0995ZM49.5405 107.351H52.5215V103.479H50.2445V104.425C50.2445 105.532 50.0098 106.508 49.5405 107.351ZM58.4784 108.132C57.6864 108.132 57.0301 107.875 56.5094 107.362C55.9961 106.849 55.7394 106.203 55.7394 105.426C55.7394 104.649 55.9961 104.003 56.5094 103.49C57.0301 102.977 57.6864 102.72 58.4784 102.72C59.2778 102.72 59.9341 102.977 60.4474 103.49C60.9681 104.003 61.2284 104.649 61.2284 105.426C61.2284 106.203 60.9681 106.849 60.4474 107.362C59.9341 107.875 59.2778 108.132 58.4784 108.132ZM58.4784 107.494C59.0651 107.494 59.5381 107.3 59.8974 106.911C60.2568 106.515 60.4364 106.02 60.4364 105.426C60.4364 104.832 60.2568 104.337 59.8974 103.941C59.5381 103.545 59.0651 103.347 58.4784 103.347C57.8991 103.347 57.4298 103.545 57.0704 103.941C56.7111 104.337 56.5314 104.832 56.5314 105.426C56.5314 106.013 56.7111 106.504 57.0704 106.9C57.4298 107.296 57.8991 107.494 58.4784 107.494ZM63.498 108V102.852H64.576L66.479 106.889H66.49L68.382 102.852H69.46V108H68.712V103.743H68.69L66.666 108H66.281L64.257 103.743H64.246V108H63.498ZM73.4935 108.132C73.0315 108.132 72.6172 108.004 72.2505 107.747C71.8912 107.483 71.7115 107.091 71.7115 106.57C71.7115 106.313 71.7555 106.09 71.8435 105.899C71.9315 105.701 72.0635 105.54 72.2395 105.415C72.4155 105.29 72.6062 105.191 72.8115 105.118C73.0169 105.037 73.2699 104.979 73.5705 104.942C73.8712 104.898 74.1499 104.872 74.4065 104.865C74.6705 104.85 74.9822 104.843 75.3415 104.843V104.678C75.3415 103.791 74.8832 103.347 73.9665 103.347C73.3505 103.347 72.8409 103.549 72.4375 103.952L72.0195 103.457C72.5109 102.966 73.1855 102.72 74.0435 102.72C74.6302 102.72 75.1105 102.881 75.4845 103.204C75.8585 103.527 76.0455 103.989 76.0455 104.59V106.845C76.0455 107.307 76.0749 107.692 76.1335 108H75.4625C75.4112 107.707 75.3855 107.428 75.3855 107.164H75.3635C74.9162 107.809 74.2929 108.132 73.4935 108.132ZM73.6915 107.516C74.1975 107.516 74.5972 107.351 74.8905 107.021C75.1912 106.691 75.3415 106.288 75.3415 105.811V105.426H75.1215C74.7695 105.426 74.4542 105.441 74.1755 105.47C73.9042 105.492 73.6292 105.54 73.3505 105.613C73.0792 105.686 72.8665 105.8 72.7125 105.954C72.5585 106.108 72.4815 106.302 72.4815 106.537C72.4815 106.874 72.5989 107.124 72.8335 107.285C73.0682 107.439 73.3542 107.516 73.6915 107.516ZM78.6325 108V102.852H79.3805V107.351H81.8775V102.852H82.6255V107.351H85.1225V102.852H85.8705V108H78.6325ZM88.5093 108V102.852H89.2573V105.008H92.2163V102.852H92.9643V108H92.2163V105.635H89.2573V108H88.5093ZM95.6039 108V102.852H96.3519V106.966H96.3629L99.4099 102.852H100.224V108H99.4869V103.842H99.4649L96.4179 108H95.6039ZM105.148 108.132C104.385 108.132 103.751 107.875 103.245 107.362C102.739 106.849 102.486 106.203 102.486 105.426C102.486 104.656 102.735 104.014 103.234 103.501C103.732 102.98 104.348 102.72 105.082 102.72C105.859 102.72 106.464 102.962 106.897 103.446C107.329 103.923 107.546 104.531 107.546 105.272C107.546 105.419 107.542 105.536 107.535 105.624H103.267C103.281 106.145 103.468 106.588 103.828 106.955C104.187 107.314 104.627 107.494 105.148 107.494C105.507 107.494 105.833 107.41 106.127 107.241C106.42 107.065 106.644 106.852 106.798 106.603L107.359 107.043C106.787 107.769 106.05 108.132 105.148 108.132ZM103.278 105.03H106.787C106.765 104.531 106.603 104.128 106.303 103.82C106.009 103.505 105.602 103.347 105.082 103.347C104.598 103.347 104.183 103.516 103.839 103.853C103.501 104.183 103.314 104.575 103.278 105.03ZM55.2893 119V113.852H56.3673L58.2703 117.889H58.2813L60.1733 113.852H61.2513V119H60.5033V114.743H60.4813L58.4573 119H58.0723L56.0483 114.743H56.0373V119H55.2893ZM65.2848 119.132C64.8228 119.132 64.4084 119.004 64.0418 118.747C63.6824 118.483 63.5028 118.091 63.5028 117.57C63.5028 117.313 63.5468 117.09 63.6348 116.899C63.7228 116.701 63.8548 116.54 64.0308 116.415C64.2068 116.29 64.3974 116.191 64.6028 116.118C64.8081 116.037 65.0611 115.979 65.3618 115.942C65.6624 115.898 65.9411 115.872 66.1978 115.865C66.4618 115.85 66.7734 115.843 67.1328 115.843V115.678C67.1328 114.791 66.6744 114.347 65.7578 114.347C65.1418 114.347 64.6321 114.549 64.2288 114.952L63.8108 114.457C64.3021 113.966 64.9768 113.72 65.8348 113.72C66.4214 113.72 66.9018 113.881 67.2758 114.204C67.6498 114.527 67.8368 114.989 67.8368 115.59V117.845C67.8368 118.307 67.8661 118.692 67.9248 119H67.2538C67.2024 118.707 67.1768 118.428 67.1768 118.164H67.1548C66.7074 118.809 66.0841 119.132 65.2848 119.132ZM65.4828 118.516C65.9888 118.516 66.3884 118.351 66.6818 118.021C66.9824 117.691 67.1328 117.288 67.1328 116.811V116.426H66.9128C66.5608 116.426 66.2454 116.441 65.9668 116.47C65.6954 116.492 65.4204 116.54 65.1418 116.613C64.8704 116.686 64.6578 116.8 64.5038 116.954C64.3498 117.108 64.2728 117.302 64.2728 117.537C64.2728 117.874 64.3901 118.124 64.6248 118.285C64.8594 118.439 65.1454 118.516 65.4828 118.516ZM74.7578 118.241C74.2738 118.835 73.6211 119.132 72.7998 119.132C71.9784 119.132 71.3148 118.879 70.8088 118.373C70.3028 117.86 70.0498 117.211 70.0498 116.426C70.0498 115.641 70.3028 114.996 70.8088 114.49C71.3148 113.977 71.9784 113.72 72.7998 113.72C73.1664 113.72 73.5221 113.797 73.8668 113.951C74.2188 114.105 74.5011 114.325 74.7138 114.611L74.1308 115.029C74.0061 114.831 73.8228 114.67 73.5808 114.545C73.3461 114.413 73.0894 114.347 72.8108 114.347C72.2241 114.347 71.7474 114.545 71.3808 114.941C71.0214 115.33 70.8418 115.825 70.8418 116.426C70.8418 117.02 71.0214 117.515 71.3808 117.911C71.7401 118.3 72.2131 118.494 72.7998 118.494C73.3938 118.494 73.8594 118.27 74.1968 117.823L74.7578 118.241ZM77.8661 119V114.479H76.0071V113.852H80.4731V114.479H78.6141V119H77.8661ZM84.5054 119.132C83.7427 119.132 83.1084 118.875 82.6024 118.362C82.0964 117.849 81.8434 117.203 81.8434 116.426C81.8434 115.656 82.0927 115.014 82.5914 114.501C83.0901 113.98 83.7061 113.72 84.4394 113.72C85.2167 113.72 85.8217 113.962 86.2544 114.446C86.6871 114.923 86.9034 115.531 86.9034 116.272C86.9034 116.419 86.8997 116.536 86.8924 116.624H82.6244C82.6391 117.145 82.8261 117.588 83.1854 117.955C83.5447 118.314 83.9847 118.494 84.5054 118.494C84.8647 118.494 85.1911 118.41 85.4844 118.241C85.7777 118.065 86.0014 117.852 86.1554 117.603L86.7164 118.043C86.1444 118.769 85.4074 119.132 84.5054 119.132ZM82.6354 116.03H86.1444C86.1224 115.531 85.9611 115.128 85.6604 114.82C85.3671 114.505 84.9601 114.347 84.4394 114.347C83.9554 114.347 83.5411 114.516 83.1964 114.853C82.8591 115.183 82.6721 115.575 82.6354 116.03ZM89.1723 121.64V113.852H89.9203V114.743H89.9533C90.1586 114.42 90.4373 114.171 90.7893 113.995C91.1413 113.812 91.508 113.72 91.8893 113.72C92.6813 113.72 93.323 113.98 93.8143 114.501C94.3056 115.014 94.5513 115.656 94.5513 116.426C94.5513 117.196 94.3056 117.841 93.8143 118.362C93.323 118.875 92.6813 119.132 91.8893 119.132C91.5153 119.132 91.1523 119.044 90.8003 118.868C90.4483 118.692 90.166 118.446 89.9533 118.131H89.9203V121.64H89.1723ZM91.8123 118.494C92.4136 118.494 92.8866 118.3 93.2313 117.911C93.5833 117.515 93.7593 117.02 93.7593 116.426C93.7593 115.832 93.5833 115.337 93.2313 114.941C92.8866 114.545 92.4136 114.347 91.8123 114.347C91.2403 114.347 90.7673 114.545 90.3933 114.941C90.0193 115.337 89.8323 115.832 89.8323 116.426C89.8323 117.02 90.0193 117.515 90.3933 117.911C90.7673 118.3 91.2403 118.494 91.8123 118.494ZM98.2117 119.132C97.7497 119.132 97.3354 119.004 96.9687 118.747C96.6094 118.483 96.4297 118.091 96.4297 117.57C96.4297 117.313 96.4737 117.09 96.5617 116.899C96.6497 116.701 96.7817 116.54 96.9577 116.415C97.1337 116.29 97.3244 116.191 97.5297 116.118C97.7351 116.037 97.9881 115.979 98.2887 115.942C98.5894 115.898 98.8681 115.872 99.1247 115.865C99.3887 115.85 99.7004 115.843 100.06 115.843V115.678C100.06 114.791 99.6014 114.347 98.6847 114.347C98.0687 114.347 97.5591 114.549 97.1557 114.952L96.7377 114.457C97.2291 113.966 97.9037 113.72 98.7617 113.72C99.3484 113.72 99.8287 113.881 100.203 114.204C100.577 114.527 100.764 114.989 100.764 115.59V117.845C100.764 118.307 100.793 118.692 100.852 119H100.181C100.129 118.707 100.104 118.428 100.104 118.164H100.082C99.6344 118.809 99.0111 119.132 98.2117 119.132ZM98.4097 118.516C98.9157 118.516 99.3154 118.351 99.6087 118.021C99.9094 117.691 100.06 117.288 100.06 116.811V116.426H99.8397C99.4877 116.426 99.1724 116.441 98.8937 116.47C98.6224 116.492 98.3474 116.54 98.0687 116.613C97.7974 116.686 97.5847 116.8 97.4307 116.954C97.2767 117.108 97.1997 117.302 97.1997 117.537C97.1997 117.874 97.3171 118.124 97.5517 118.285C97.7864 118.439 98.0724 118.516 98.4097 118.516Z" fill="url(#paint0_linear)"/>
<path d="M77.0174 94.9252C68.8208 94.9252 64.6997 92.8699 60.7151 90.8751C57.0637 89.0465 53.8972 87.4749 47.1551 87.4749H45.2915C44.6249 87.4749 44.0795 86.9308 44.0795 86.2659C44.0795 85.601 44.6249 85.0569 45.2915 85.0569H47.1551C48.7914 85.0569 50.2307 85.1476 51.5337 85.2987V68.8869C51.5337 68.222 52.0791 67.6779 52.7457 67.6779C53.4124 67.6779 53.9578 68.222 53.9578 68.8869V85.7067C57.1395 86.3868 59.4121 87.5353 61.7908 88.7141C64.2149 89.923 66.6845 91.1622 70.1995 91.8725V75.098C70.1995 74.4331 70.7449 73.889 71.4116 73.889H82.608C83.2747 73.889 83.8201 74.4331 83.8201 75.098V88.6536C83.8201 89.3185 83.2747 89.8626 82.608 89.8626C81.9414 89.8626 81.396 89.3185 81.396 88.6536V76.307H72.6236V92.2654C73.9417 92.4165 75.3962 92.5072 77.0022 92.5072C84.7443 92.5072 88.638 88.6234 92.3955 84.8756C94.7135 82.5634 96.9558 80.3268 100.047 78.9516V67.8744C100.047 67.2094 100.592 66.6654 101.259 66.6654C101.925 66.6654 102.471 67.2094 102.471 67.8744V78.1204C103.774 77.788 105.213 77.6066 106.849 77.6066H108.713C109.38 77.6066 109.925 78.1507 109.925 78.8156C109.925 79.4805 109.38 80.0246 108.713 80.0246H106.849C104.849 80.0246 103.198 80.3268 101.759 80.8557C101.713 80.886 101.653 80.9011 101.607 80.9162C98.6527 82.0496 96.5468 84.1351 94.1075 86.5681C90.3955 90.2857 85.7594 94.9252 77.0174 94.9252ZM77.0174 68.8567C73.26 68.8567 70.2146 65.804 70.2146 62.0562C70.2146 58.3084 73.2751 55.2708 77.0174 55.2708C78.8658 55.2708 80.593 55.9962 81.8959 57.3261C82.3656 57.8097 82.3505 58.5653 81.8808 59.0338C81.396 59.5022 80.6384 59.4871 80.1687 59.0187C79.3354 58.1573 78.2143 57.6888 77.0325 57.6888C74.6084 57.6888 72.6539 59.6534 72.6539 62.0562C72.6539 64.459 74.6235 66.4387 77.0325 66.4387C79.4415 66.4387 81.4263 64.4741 81.4263 62.0562C81.4263 61.3913 81.9717 60.8472 82.6383 60.8472C83.305 60.8472 83.8504 61.3913 83.8504 62.0562C83.8201 65.8191 80.7748 68.8567 77.0174 68.8567ZM45.5794 67.9802C45.1703 67.9802 44.7764 67.7837 44.5491 67.4059C44.1098 66.7107 43.9734 65.8796 44.1552 65.0786C44.337 64.2777 44.8219 63.5976 45.5188 63.1745L75.3659 44.5563C76.3507 43.9367 77.6385 43.9367 78.6234 44.5563L94.4257 54.4094C94.9862 54.757 95.1681 55.5126 94.8044 56.0718C94.456 56.6309 93.6984 56.8123 93.1378 56.4496L77.3355 46.5965C77.1234 46.4604 76.8507 46.4604 76.6386 46.5965L46.8066 65.2298C46.6551 65.3204 46.5491 65.4715 46.5188 65.6378C46.4733 65.804 46.5036 65.9854 46.5945 66.1365C46.943 66.6956 46.7763 67.4512 46.2157 67.7988C46.0188 67.9197 45.7915 67.9802 45.5794 67.9802ZM107.864 65.4262C107.652 65.4262 107.425 65.3658 107.228 65.2449L96.8952 58.8071C96.5468 58.5804 96.3195 58.2026 96.3195 57.7795V47.1858C96.3195 46.8231 96.0316 46.536 95.668 46.536H88.1987C87.532 46.536 86.9866 45.992 86.9866 45.327C86.9866 44.6621 87.532 44.1181 88.1987 44.1181H95.668C97.3649 44.1181 98.7436 45.4933 98.7436 47.1858V57.1145L108.501 63.1896C109.061 63.5372 109.243 64.2928 108.88 64.8519C108.652 65.2146 108.258 65.4262 107.864 65.4262ZM93.8045 40.9445C93.1378 40.9445 92.5924 40.4005 92.5924 39.7355C92.5924 38.1488 93.3651 37.3629 94.2742 36.4713C95.2438 35.5041 96.3347 34.4161 96.3347 32.2852C96.3347 31.6203 96.8801 31.0763 97.5467 31.0763C98.2134 31.0763 98.7588 31.6203 98.7588 32.2852C98.7588 35.4286 97.0316 37.1514 95.9862 38.179C95.0771 39.0857 95.0165 39.2066 95.0165 39.7355C95.0165 40.4005 94.4711 40.9445 93.8045 40.9445Z" fill="url(#paint1_linear)"/>
<defs>
<filter id="filter0_d" x="0" y="0" width="152" height="152" filterUnits="userSpaceOnUse" color-interpolation-filters="sRGB">
<feFlood flood-opacity="0" result="BackgroundImageFix"/>
<feColorMatrix in="SourceAlpha" type="matrix" values="0 0 0 0 0 0 0 0 0 0 0 0 0 0 0 0 0 0 127 0"/>
<feOffset dy="4"/>
<feGaussianBlur stdDeviation="8.5"/>
<feColorMatrix type="matrix" values="0 0 0 0 0 0 0 0 0 0 0 0 0 0 0 0 0 0 0.15 0"/>
<feBlend mode="normal" in2="BackgroundImageFix" result="effect1_dropShadow"/>
<feBlend mode="normal" in="SourceGraphic" in2="effect1_dropShadow" result="shape"/>
</filter>
<linearGradient id="paint0_linear" x1="78" y1="99" x2="93.2887" y2="133.994" gradientUnits="userSpaceOnUse">
<stop stop-color="#F7C3DC"/>
<stop offset="0.14693" stop-color="#F6A45D" stop-opacity="0.85307"/>
<stop offset="0.464644" stop-color="#EE7787"/>
<stop offset="0.730274" stop-color="#A95EA1"/>
<stop offset="1" stop-color="#273067"/>
</linearGradient>
<linearGradient id="paint1_linear" x1="44.0764" y1="63.0007" x2="109.924" y2="63.0007" gradientUnits="userSpaceOnUse">
<stop stop-color="#F7C3DC"/>
<stop offset="0.1384" stop-color="#F6A45D"/>
<stop offset="0.4262" stop-color="#EE7787"/>
<stop offset="0.6888" stop-color="#A95EA1"/>
<stop offset="1" stop-color="#273067"/>
</linearGradient>
</defs>
</svg>
