<svg width="110" height="112" viewBox="0 0 110 112" fill="none" xmlns="http://www.w3.org/2000/svg">
<g clip-path="url(#clip0)">
<path d="M78.31 57.4601C76.71 70.9201 65.02 75.7201 59.98 77.1701C62.27 77.1501 64.48 76.7801 66.11 75.8401C71.52 72.6701 66.11 79.7501 66.11 79.7501L58.68 82.7301V32.4601C58.68 28.7201 61.93 25.8401 65.64 26.2801C71.45 26.9701 78.31 27.9001 78.31 27.9001C78.31 27.9001 80.35 40.2101 78.31 57.4601Z" fill="url(#paint0_linear)"/>
<path d="M62.16 107.81H57.83V99.7601V88.8401L57.76 83.1101L69.33 77.8901L74.47 75.5801V82.7701C75.65 83.5101 77.05 84.2501 78.73 84.9601C90.39 90.0501 97.58 93.4501 98.86 107.85H62.16V107.81Z" fill="url(#paint1_linear)"/>
<path d="M51.95 41.5899C51.95 42.6699 51.06 43.5799 49.96 43.5799H21.93C20.85 43.5799 19.94 42.6899 19.94 41.5899C19.94 40.4799 20.83 39.5999 21.93 39.5999H49.96C51.06 39.5999 51.95 40.4799 51.95 41.5899ZM49.96 90.7799H21.93C20.85 90.7799 19.94 91.6699 19.94 92.7699C19.94 93.8799 20.83 94.7599 21.93 94.7599H49.96C51.07 94.7599 51.95 93.8699 51.95 92.7699C51.95 91.6699 51.06 90.7799 49.96 90.7799ZM49.96 56.6499H21.93C20.85 56.6499 19.94 57.5399 19.94 58.6399C19.94 59.7399 20.83 60.6299 21.93 60.6299H49.96C51.07 60.6299 51.95 59.7399 51.95 58.6399C51.95 57.5399 51.06 56.6499 49.96 56.6499ZM102.33 109.83C102.33 110.94 101.44 111.82 100.34 111.82H6.32C5.24 111.82 4.33 110.93 4.33 109.83V13.1399C4.33 12.0599 5.22 11.1499 6.32 11.1499H56.7C56.9 11.1499 57.09 11.1699 57.29 11.2499C57.46 11.1999 57.66 11.1799 57.83 11.1799C59.06 11.1999 60.32 11.2999 61.52 11.4799C63.98 11.8499 66.12 12.4599 68.21 13.0499C72.86 14.3799 76.55 15.4099 81.62 13.2999C82.63 12.8799 83.79 13.3499 84.2 14.3599C84.62 15.3699 84.15 16.5299 83.14 16.9399C80.51 18.0199 78.14 18.4399 75.93 18.4399C72.78 18.4399 69.95 17.6299 67.17 16.8399C65.2 16.2699 63.16 15.7099 60.97 15.3899C59.94 15.2399 58.88 15.1399 57.82 15.1399C57.65 15.1399 57.48 15.1199 57.33 15.0699C57.16 15.1199 56.96 15.1699 56.74 15.1699H8.32V107.87H60.07L58.3 103.05C58.23 103.07 58.15 103.1 58.05 103.1C58.03 103.1 58.03 103.1 58 103.1C57.93 103.1 57.85 103.12 57.78 103.12H57.76C57.76 103.12 57.76 103.12 57.74 103.12C57.67 103.12 57.59 103.12 57.52 103.1C57.5 103.1 57.47 103.1 57.45 103.1C57.4 103.1 57.33 103.07 57.28 103.07C57.26 103.07 57.23 103.07 57.21 103.05C57.14 103.03 57.09 103 57.01 102.98C56.99 102.98 56.99 102.98 56.96 102.95C56.89 102.92 56.81 102.88 56.74 102.85C56.72 102.82 56.69 102.82 56.67 102.8C56.62 102.78 56.57 102.73 56.52 102.7C56.5 102.67 56.47 102.67 56.45 102.65C56.4 102.6 56.33 102.55 56.28 102.5C56.28 102.5 56.26 102.5 56.26 102.48C55.52 101.69 55.55 100.44 56.36 99.6999L57.81 98.3499L62.24 94.2199L60.86 91.8099H57.69C57.15 91.8099 56.66 91.5899 56.29 91.2399C55.95 90.8999 55.72 90.3999 55.72 89.8399V83.0999C55.72 82.3399 56.16 81.6199 56.88 81.2999L62.32 78.8399C61.11 79.0099 59.88 79.1099 58.6 79.1099C57.52 79.1099 56.63 78.2199 56.63 77.1399C56.63 76.0599 57.52 75.1699 58.6 75.1699C70.19 75.1699 75.21 66.0599 77.18 60.6299C77.75 59.0999 78.02 57.4799 78.02 55.8299V28.3699C74.18 29.0799 70.56 28.1699 67.07 27.3099C63.94 26.5199 60.99 25.7799 58.06 26.2799C56.98 26.4499 55.97 25.7099 55.8 24.6599C55.63 23.5799 56.37 22.5699 57.42 22.3999C61.13 21.7999 64.6 22.6699 68 23.4999C71.89 24.4599 75.53 25.3899 79.25 23.9699C79.87 23.7499 80.53 23.8199 81.07 24.1899C81.61 24.5599 81.93 25.1699 81.93 25.8099V55.8599C81.93 57.9799 81.56 60.0399 80.85 62.0099C79.79 64.9399 77.8 69.1499 74.3 72.6699C73.78 73.1899 73.27 73.6799 72.73 74.1199L73.52 73.7799C74.14 73.5099 74.82 73.5599 75.39 73.9299C75.96 74.2999 76.3 74.9099 76.3 75.5799V80.9699C78.64 82.3699 81.59 83.7999 85.11 85.2299C94.34 88.9699 98.5 95.4699 100.37 100.27C102.09 104.75 102.19 108.56 102.19 109.65C102.33 109.68 102.33 109.76 102.33 109.83ZM59.7 87.8299H61.62L72.47 82.9299V78.5699L59.7 84.3399V87.8299ZM64.13 107.84H98.29C98.14 106.31 97.75 104.03 96.76 101.49C94.45 95.6299 90.07 91.3799 83.77 88.8399C80.87 87.6599 78.28 86.4799 76.09 85.2699C75.89 85.5899 75.6 85.8399 75.25 85.9799L64.82 90.6999L66.47 93.5799C66.91 94.3699 66.77 95.3799 66.1 95.9899L61.5 100.3L64.01 107.12C64.08 107.37 64.13 107.62 64.13 107.84ZM49.96 73.7299H21.93C20.85 73.7299 19.94 74.6199 19.94 75.7199C19.94 76.8199 20.83 77.7099 21.93 77.7099H49.96C51.07 77.7099 51.95 76.8199 51.95 75.7199C51.95 74.6199 51.06 73.7299 49.96 73.7299Z" fill="url(#paint2_linear)"/>
<path d="M109.24 18.92V32.92H103.87V18.92H109.24ZM76.73 5.36H90.73V0H76.73V5.36ZM103.88 14.45H109.25V5.36V0.44V0H95.25V5.36H103.89V14.45H103.88Z" fill="url(#paint3_linear)"/>
<path d="M109.86 74.4899C109.86 75.5699 108.97 76.4599 107.89 76.4599H104V80.3499C104 81.4299 103.11 82.3199 102.03 82.3199C100.95 82.3199 100.06 81.4299 100.06 80.3499V76.4599H96.17C95.09 76.4599 94.2 75.5699 94.2 74.4899C94.2 73.4099 95.09 72.5199 96.17 72.5199H100.06V68.6299C100.06 67.5499 100.95 66.6599 102.03 66.6599C103.11 66.6599 104 67.5499 104 68.6299V72.5199H107.89C108.97 72.5199 109.86 73.4099 109.86 74.4899ZM20.13 0.169922H1.97C0.89 0.169922 0 1.05992 0 2.13992C0 3.21992 0.89 4.10992 1.97 4.10992H20.13C21.21 4.10992 22.1 3.21992 22.1 2.13992C22.1 1.05992 21.21 0.169922 20.13 0.169922ZM98.86 55.8099C99.94 55.8099 100.83 54.9199 100.83 53.8399C100.83 52.4399 101.99 51.2799 103.39 51.2799C104.79 51.2799 105.95 52.4399 105.95 53.8399C105.95 54.9199 106.84 55.8099 107.92 55.8099C109 55.8099 109.89 54.9199 109.89 53.8399C109.89 50.2499 106.99 47.3399 103.39 47.3399C99.79 47.3399 96.89 50.2399 96.89 53.8399C96.89 54.9299 97.75 55.8099 98.86 55.8099ZM44.79 2.67992C44.79 3.90992 43.78 4.88992 42.58 4.88992C41.37 4.88992 40.37 3.87992 40.37 2.67992C40.37 1.46992 41.38 0.469922 42.58 0.469922C43.78 0.469922 44.79 1.44992 44.79 2.67992ZM52.17 2.67992C52.17 3.90992 51.16 4.88992 49.96 4.88992C48.75 4.88992 47.75 3.87992 47.75 2.67992C47.75 1.46992 48.76 0.469922 49.96 0.469922C51.16 0.469922 52.17 1.44992 52.17 2.67992ZM59.55 2.67992C59.55 3.90992 58.54 4.88992 57.34 4.88992C56.13 4.88992 55.13 3.87992 55.13 2.67992C55.13 1.46992 56.14 0.469922 57.34 0.469922C58.55 0.469922 59.55 1.44992 59.55 2.67992Z" fill="url(#paint4_linear)"/>
</g>
<defs>
<linearGradient id="paint0_linear" x1="79.6482" y1="54.4874" x2="58.7535" y2="54.4874" gradientUnits="userSpaceOnUse">
<stop stop-color="#F7C3DC"/>
<stop offset="0.1384" stop-color="#F6A45D"/>
<stop offset="0.4262" stop-color="#EE7787"/>
<stop offset="0.6888" stop-color="#A95EA1"/>
<stop offset="1" stop-color="#273067"/>
</linearGradient>
<linearGradient id="paint1_linear" x1="78.3071" y1="112.402" x2="78.3071" y2="77.3339" gradientUnits="userSpaceOnUse">
<stop stop-color="#F7C3DC"/>
<stop offset="0.1384" stop-color="#F6A45D"/>
<stop offset="0.4262" stop-color="#EE7787"/>
<stop offset="0.6888" stop-color="#A95EA1"/>
<stop offset="1" stop-color="#273067"/>
</linearGradient>
<linearGradient id="paint2_linear" x1="43.544" y1="79.3257" x2="90.6624" y2="-6.5567" gradientUnits="userSpaceOnUse">
<stop stop-color="#F7C3DC"/>
<stop offset="0.1384" stop-color="#F6A45D"/>
<stop offset="0.4262" stop-color="#EE7787"/>
<stop offset="0.6888" stop-color="#A95EA1"/>
</linearGradient>
<linearGradient id="paint3_linear" x1="76.7319" y1="16.4637" x2="109.241" y2="16.4637" gradientUnits="userSpaceOnUse">
<stop stop-color="#F7C3DC"/>
<stop offset="0.1384" stop-color="#F6A45D"/>
<stop offset="0.4262" stop-color="#EE7787"/>
<stop offset="0.6888" stop-color="#A95EA1"/>
<stop offset="1" stop-color="#273067"/>
</linearGradient>
<linearGradient id="paint4_linear" x1="0" y1="41.2448" x2="109.881" y2="41.2448" gradientUnits="userSpaceOnUse">
<stop stop-color="#F7C3DC"/>
<stop offset="0.1384" stop-color="#F6A45D"/>
<stop offset="0.4262" stop-color="#EE7787"/>
<stop offset="0.6888" stop-color="#A95EA1"/>
<stop offset="1" stop-color="#273067"/>
</linearGradient>
<clipPath id="clip0">
<rect width="109.88" height="111.82" fill="white"/>
</clipPath>
</defs>
</svg>
