<svg width="111" height="109" viewBox="0 0 111 109" fill="none" xmlns="http://www.w3.org/2000/svg">
<path d="M31.7737 59.2562C33.5405 56.4569 36.6762 54.5692 40.293 54.5692H61.568C66.7665 54.5692 67.6637 50.895 67.6637 45.8028V16.4187L81.178 27.3675V59.2562H31.7737Z" fill="url(#paint0_linear)"/>
<path d="M49.0158 98.0789H26.0203C22.977 98.0789 20.2298 96.8633 18.2595 94.9204C16.2893 92.9866 15.0498 90.3438 15.0313 87.4063C14.985 81.4393 20.1188 76.5496 26.2053 76.5496H69.4768C76.072 76.5496 81.4093 71.3284 81.4093 64.8641V49.2098C81.4093 42.7547 86.7465 39.2739 93.3418 39.2739C96.1815 39.2739 98.494 41.5392 98.494 44.3201V90.6292C98.494 94.7546 95.0808 98.0973 90.8628 98.0973H49.0158V98.0789Z" fill="url(#paint1_linear)"/>
<path d="M26.7325 1.79564C26.7325 2.78094 25.9093 3.59128 24.901 3.59128H15.0498C14.0415 3.59128 13.2183 2.78094 13.2183 1.79564C13.2183 0.81034 14.0415 0 15.0498 0H24.901C25.9093 0 26.7325 0.81034 26.7325 1.79564ZM19.9708 6.73135H3.071C2.06275 6.73135 1.2395 7.54169 1.2395 8.52699C1.2395 9.51229 2.06275 10.3226 3.071 10.3226H19.9708C20.979 10.3226 21.8022 9.51229 21.8022 8.52699C21.8022 7.53248 20.979 6.73135 19.9708 6.73135ZM109.168 100.068H105.552V96.5226C105.552 95.5373 104.729 94.727 103.72 94.727C102.712 94.727 101.889 95.5373 101.889 96.5226V100.068H98.272C97.2637 100.068 96.4405 100.878 96.4405 101.863C96.4405 102.849 97.2637 103.659 98.272 103.659H101.889V107.204C101.889 108.19 102.712 109 103.72 109C104.729 109 105.552 108.19 105.552 107.204V103.659H109.168C110.177 103.659 111 102.849 111 101.863C111 100.878 110.177 100.068 109.168 100.068ZM5.42975 44.2925C4.07925 44.2925 2.96 45.3699 2.96 46.7143C2.96 48.0587 4.06075 49.1361 5.42975 49.1361C6.78025 49.1361 7.8995 48.0587 7.8995 46.7143C7.8995 45.3699 6.78025 44.2925 5.42975 44.2925ZM5.476 52.976C4.46775 52.976 3.6445 53.7863 3.6445 54.7716V84.2386C3.6445 85.2239 4.46775 86.0342 5.476 86.0342C6.48425 86.0342 7.3075 85.2239 7.3075 84.2386V54.7716C7.3075 53.7587 6.48425 52.976 5.476 52.976ZM12.0898 100.943C12.0898 104.221 9.38875 106.864 6.04025 106.864C2.69175 106.864 0 104.221 0 100.943C0 97.6644 2.701 95.0216 6.0495 95.0216C9.398 95.0216 12.0898 97.6921 12.0898 100.943ZM8.42675 100.943C8.42675 99.6627 7.35375 98.6129 6.04025 98.6129C4.72675 98.6129 3.65375 99.6627 3.65375 100.943C3.65375 102.223 4.72675 103.272 6.04025 103.272C7.35375 103.272 8.42675 102.223 8.42675 100.943Z" fill="url(#paint2_linear)"/>
<path d="M62.5577 42.9297H67.6175V51.0699V59.2102H54.1032H40.293V56.2727C40.293 54.0258 42.1522 53.8969 44.437 53.8969H54.2605C58.386 53.8969 58.4045 53.5838 58.4045 47.009C58.4045 44.7437 60.2637 42.9297 62.5577 42.9297Z" fill="url(#paint3_linear)"/>
<path d="M98.9935 53.6667C100.002 53.6667 100.825 52.8564 100.825 51.8711V44.7622C100.825 41.1249 97.8003 38.169 94.091 38.169H83.0095V27.3399C83.0095 26.8702 82.806 26.4006 82.4638 26.0599L75.1378 18.9234C74.4255 18.2327 73.26 18.2327 72.5478 18.9234C71.8355 19.6232 71.8355 20.7651 72.5478 21.4557L79.328 28.0489V57.3133H69.4305V42.856C69.4305 41.8707 68.6073 41.0604 67.599 41.0604H40.5613C39.553 41.0604 38.7298 41.8707 38.7298 42.856V57.3225H32.1345V30.6181C32.1345 30.5536 32.153 30.4799 32.153 30.3971C32.153 30.305 32.153 30.2589 32.1345 30.1761V18.2143H65.7583V34.5408H42.3095V23.325C42.3095 22.3397 41.4863 21.5294 40.478 21.5294C39.4698 21.5294 38.6465 22.3397 38.6465 23.325V36.3365C38.6465 37.3218 39.4698 38.1321 40.478 38.1321H67.599C68.6073 38.1321 69.4305 37.3218 69.4305 36.3365V16.4187C69.4305 15.4334 68.6073 14.623 67.599 14.623H30.303C29.2948 14.623 28.4715 15.4334 28.4715 16.4187V28.6014H20.6183C16.909 28.6014 13.8843 31.5573 13.8843 35.1946V92.7472C13.8843 96.3846 16.909 99.3405 20.6183 99.3405H94.1003C97.8095 99.3405 100.834 96.3846 100.834 92.7472V59.1641C100.834 58.1788 100.011 57.3685 99.0028 57.3685H83.0095V41.7787H94.091C95.7838 41.7787 97.162 43.1231 97.162 44.7806V51.8895C97.162 52.8656 97.9853 53.6667 98.9935 53.6667ZM42.402 44.7254H65.786V57.3961H42.402V44.7254ZM97.162 92.738C97.162 94.3955 95.7838 95.74 94.091 95.74H20.6183C18.9255 95.74 17.5473 94.3955 17.5473 92.738V35.1854C17.5473 33.5279 18.9255 32.1835 20.6183 32.1835H28.4715V57.3685H22.903C21.8948 57.3685 21.0715 58.1788 21.0715 59.1641V88.6771C21.0715 89.6624 21.8948 90.4728 22.903 90.4728C23.9113 90.4728 24.7345 89.6624 24.7345 88.6771V60.9598H40.3578C40.4225 60.9598 40.4965 60.9782 40.5613 60.9782H67.6175C67.6823 60.9782 67.7563 60.9782 67.821 60.9598H97.162V92.738Z" fill="url(#paint4_linear)"/>
<path d="M60.8372 31.4928C61.8455 31.4928 62.6687 30.6824 62.6687 29.6971V23.0578C62.6687 22.0725 61.8455 21.2622 60.8372 21.2622H57.4425C56.4342 21.2622 55.611 22.0725 55.611 23.0578C55.611 24.0431 56.4342 24.8535 57.4425 24.8535H58.9965V29.6971C59.0057 30.7008 59.829 31.4928 60.8372 31.4928Z" fill="url(#paint5_linear)"/>
<path d="M99.0397 20.8294C99.7057 20.3506 99.9925 19.5218 99.7335 18.7391L98.6697 15.5254L101.454 13.5363C102.12 13.0667 102.407 12.2288 102.12 11.4368C101.861 10.6725 101.139 10.1569 100.325 10.1569H96.8752L95.8115 6.95233C95.5525 6.18803 94.831 5.67236 94.017 5.67236C93.1937 5.67236 92.4722 6.18803 92.2225 6.95233L91.1587 10.1661H88.023C87.4217 10.1661 86.913 10.6541 86.913 11.2619C86.913 11.3816 86.9315 11.4921 86.9685 11.5934C86.7372 11.6578 86.5245 11.796 86.3765 11.9985C85.9972 12.4958 86.1175 13.1864 86.617 13.5363L89.4105 15.5254L88.3467 18.7391C88.0877 19.5126 88.3745 20.3506 89.0312 20.8202C89.355 21.0504 89.7435 21.1701 90.1412 21.1701C90.539 21.1701 90.9275 21.0412 91.2512 20.8202H91.2605L94.0447 18.8312L96.829 20.8202C97.1527 21.0504 97.5412 21.1793 97.939 21.1793C98.346 21.1793 98.716 21.0504 99.0397 20.8294ZM91.353 14.2178L88.7352 12.3485H91.9635C92.4445 12.3485 92.8607 12.0538 93.018 11.6026L94.017 8.57301L95.0252 11.6118V11.621C95.1825 12.0722 95.5987 12.3669 96.0797 12.3669H99.308L96.6995 14.2362C96.311 14.5124 96.1352 15.0005 96.2925 15.4609L97.2915 18.4721L94.6737 16.6028C94.2852 16.3173 93.758 16.3173 93.3695 16.6028L90.7517 18.4721L91.7507 15.4517C91.9172 14.9913 91.7507 14.494 91.353 14.2178Z" fill="url(#paint6_linear)"/>
<defs>
<linearGradient id="paint0_linear" x1="56.4733" y1="57.6753" x2="56.4733" y2="14.1091" gradientUnits="userSpaceOnUse">
<stop stop-color="#F7C3DC"/>
<stop offset="0.1384" stop-color="#F6A45D"/>
<stop offset="0.4262" stop-color="#EE7787"/>
<stop offset="0.6888" stop-color="#A95EA1"/>
<stop offset="1" stop-color="#273067"/>
</linearGradient>
<linearGradient id="paint1_linear" x1="15.0259" y1="68.6851" x2="98.494" y2="68.6851" gradientUnits="userSpaceOnUse">
<stop stop-color="#F7C3DC"/>
<stop offset="0.1384" stop-color="#F6A45D"/>
<stop offset="0.4262" stop-color="#EE7787"/>
<stop offset="0.6888" stop-color="#A95EA1"/>
<stop offset="1" stop-color="#273067"/>
</linearGradient>
<linearGradient id="paint2_linear" x1="0" y1="54.4992" x2="111" y2="54.4992" gradientUnits="userSpaceOnUse">
<stop stop-color="#F7C3DC"/>
<stop offset="0.1384" stop-color="#F6A45D"/>
<stop offset="0.4262" stop-color="#EE7787"/>
<stop offset="0.6888" stop-color="#A95EA1"/>
<stop offset="1" stop-color="#273067"/>
</linearGradient>
<linearGradient id="paint3_linear" x1="40.2907" y1="51.0678" x2="67.617" y2="51.0678" gradientUnits="userSpaceOnUse">
<stop stop-color="#F7C3DC"/>
<stop offset="0.1384" stop-color="#F6A45D"/>
<stop offset="0.4262" stop-color="#EE7787"/>
<stop offset="0.6888" stop-color="#A95EA1"/>
<stop offset="1" stop-color="#273067"/>
</linearGradient>
<linearGradient id="paint4_linear" x1="53.0806" y1="73.8228" x2="18.8817" y2="153.406" gradientUnits="userSpaceOnUse">
<stop stop-color="#F7C3DC"/>
<stop offset="0.1384" stop-color="#F6A45D"/>
<stop offset="0.4262" stop-color="#EE7787"/>
<stop offset="0.6888" stop-color="#A95EA1"/>
<stop offset="1" stop-color="#273067"/>
</linearGradient>
<linearGradient id="paint5_linear" x1="55.6147" y1="26.3752" x2="62.6695" y2="26.3752" gradientUnits="userSpaceOnUse">
<stop stop-color="#F7C3DC"/>
<stop offset="0.1384" stop-color="#F6A45D"/>
<stop offset="0.4262" stop-color="#EE7787"/>
<stop offset="0.6888" stop-color="#A95EA1"/>
<stop offset="1" stop-color="#273067"/>
</linearGradient>
<linearGradient id="paint6_linear" x1="86.1453" y1="13.4233" x2="102.234" y2="13.4233" gradientUnits="userSpaceOnUse">
<stop stop-color="#F7C3DC"/>
<stop offset="0.1384" stop-color="#F6A45D"/>
<stop offset="0.4262" stop-color="#EE7787"/>
<stop offset="0.6888" stop-color="#A95EA1"/>
<stop offset="1" stop-color="#273067"/>
</linearGradient>
</defs>
</svg>
