<svg width="118" height="108" viewBox="0 0 118 108" fill="none" xmlns="http://www.w3.org/2000/svg">
<g clip-path="url(#clip0)">
<path d="M91.8 65.7001V81.4301L85.4 74.7301C85.4 74.7301 95.78 55.3901 80.29 40.0401C64.8 24.6801 83.27 5.34009 83.27 5.34009C83.27 5.34009 114.89 12.7701 114.23 36.6501C113.58 60.5401 91.8 65.7001 91.8 65.7001Z" fill="url(#paint0_linear)"/>
<path d="M25.13 84.7701C80.04 77.2001 11.04 30.4001 42.02 28.9001C64.12 27.8201 82.17 43.1301 82.17 60.5901C82.17 78.0701 64.17 92.2801 42.02 92.2801C40.66 92.2801 39.3 92.2301 37.97 92.1201L25.13 104.96V84.7701Z" fill="url(#paint1_linear)"/>
<path d="M91.01 83.3C90.52 83.3 90.05 83.11 89.67 82.76L83.04 76.13C82.31 75.4 82.31 74.21 83.04 73.48C83.77 72.75 84.96 72.75 85.69 73.48L89.11 76.9V65.88C89.11 65.76 89.11 65.65 89.13 65.5C89.18 65.22 89.29 64.96 89.43 64.75C89.59 64.54 89.78 64.33 90.04 64.19C90.13 64.12 90.25 64.07 90.37 64.05C102.7 59.5 112.35 47.64 112.35 37.05C112.35 36.02 113.19 35.17 114.23 35.17C115.27 35.17 116.11 36.01 116.11 37.05C116.11 42.98 113.6 49.38 109.01 55.05C104.75 60.32 99.05 64.59 92.86 67.1V81.4C92.86 82.15 92.41 82.85 91.71 83.13C91.5 83.25 91.24 83.3 91.01 83.3ZM111.84 28.1C111.14 28.1 110.46 27.7 110.13 27.02C104.67 15.19 90.19 7.23999 74.11 7.23999C58.64 7.23999 44.77 14.46 38.77 25.62C38.28 26.53 37.15 26.89 36.24 26.39C35.33 25.9 34.97 24.77 35.47 23.86C42.1 11.48 57.27 3.48999 74.12 3.48999C82.84 3.48999 91.18 5.59999 98.28 9.60999C105.31 13.57 110.59 19.03 113.54 25.45C113.98 26.39 113.56 27.51 112.63 27.93C112.36 28.03 112.1 28.1 111.84 28.1ZM26.44 106.29L38.67 94.05C39.79 94.12 40.9 94.17 42.02 94.17C65.2 94.17 84.04 79.1 84.04 60.61C84.04 42.09 65.2 27.05 42.02 27.05C18.84 27.05 0 42.12 0 60.61C0 66.47 1.95 72.26 5.6 77.3C9.09 82.13 14.11 86.23 20.06 89.16C21 89.61 22.12 89.23 22.57 88.29C23.02 87.35 22.64 86.23 21.7 85.78C10.45 80.25 3.73 70.83 3.73 60.59C3.73 44.14 20.91 30.78 42 30.78C63.09 30.78 80.27 44.16 80.27 60.59C80.27 77.02 63.09 90.4 42 90.4C40.71 90.4 39.38 90.35 38.09 90.24C37.55 90.19 37.01 90.4 36.61 90.78L26.98 100.41V84.75C26.98 83.72 26.14 82.87 25.1 82.87C24.07 82.87 23.22 83.71 23.22 84.75V104.93C23.22 105.68 23.67 106.38 24.37 106.67C24.6 106.76 24.84 106.81 25.1 106.81C25.59 106.85 26.09 106.64 26.44 106.29Z" fill="url(#paint2_linear)"/>
<path d="M97.85 26.23C97.85 25.2 98.69 24.35 99.72 24.35H115.16C116.19 24.35 117.04 25.19 117.04 26.23C117.04 27.26 116.2 28.11 115.16 28.11H99.73C98.7 28.1 97.85 27.26 97.85 26.23ZM115.17 34.85H107.46C106.43 34.85 105.58 35.69 105.58 36.73C105.58 37.76 106.42 38.61 107.46 38.61H115.17C116.2 38.61 117.05 37.77 117.05 36.73C117.05 35.7 116.2 34.85 115.17 34.85ZM22.36 10.9C18.52 10.9 15.38 14.04 15.38 17.88C15.38 18.91 16.22 19.76 17.25 19.76C18.28 19.76 19.13 18.92 19.13 17.88C19.13 16.1 20.58 14.65 22.36 14.65C23.39 14.65 24.24 13.81 24.24 12.77C24.23 11.74 23.39 10.9 22.36 10.9ZM8.34 10.9C7.31 10.9 6.46 11.74 6.46 12.78C6.46 13.81 7.3 14.66 8.34 14.66C10.12 14.66 11.57 16.11 11.57 17.89C11.57 18.92 12.41 19.77 13.45 19.77C14.48 19.77 15.33 18.93 15.33 17.89C15.35 14.04 12.21 10.9 8.34 10.9ZM13.48 2.02002C12.45 2.02002 11.6 2.86002 11.6 3.90002C11.6 5.68002 10.15 7.13002 8.37 7.13002C7.34 7.13002 6.49 7.97002 6.49 9.00002C6.49 10.03 7.33 10.88 8.37 10.88C12.21 10.88 15.35 7.74002 15.35 3.90002C15.35 2.86002 14.51 2.02002 13.48 2.02002ZM22.36 7.13002C20.58 7.13002 19.13 5.68002 19.13 3.90002C19.13 2.87002 18.29 2.02002 17.25 2.02002C16.22 2.02002 15.38 2.86002 15.38 3.90002C15.38 7.74002 18.52 10.88 22.36 10.88C23.39 10.88 24.24 10.04 24.24 9.00002C24.23 7.97002 23.39 7.13002 22.36 7.13002ZM110.25 95.67H106.71V92.13C106.71 91.1 105.87 90.25 104.83 90.25C103.8 90.25 102.96 91.09 102.96 92.13V95.67H99.42C98.39 95.67 97.55 96.51 97.55 97.55C97.55 98.58 98.39 99.43 99.42 99.43H102.96V102.97C102.96 104 103.8 104.85 104.83 104.85C105.86 104.85 106.71 104.01 106.71 102.97V99.43H110.25C111.28 99.43 112.13 98.59 112.13 97.55C112.13 96.52 111.28 95.67 110.25 95.67ZM84.47 97.55C84.47 98.81 83.44 99.87 82.15 99.87C80.86 99.87 79.83 98.84 79.83 97.55C79.83 96.26 80.86 95.23 82.15 95.23C83.44 95.23 84.47 96.28 84.47 97.55ZM70.8 97.55C70.8 98.81 69.77 99.87 68.48 99.87C67.19 99.87 66.16 98.84 66.16 97.55C66.16 96.26 67.19 95.23 68.48 95.23C69.77 95.23 70.8 96.28 70.8 97.55ZM40.2 2.74002H34.04C33.01 2.74002 32.16 3.58002 32.16 4.61002C32.16 5.64002 33 6.49002 34.04 6.49002H40.2C41.23 6.49002 42.08 5.65002 42.08 4.61002C42.07 3.59002 41.23 2.74002 40.2 2.74002ZM12.38 103.69H6.19C5.16 103.69 4.31 104.53 4.31 105.57C4.31 106.6 5.15 107.45 6.19 107.45H12.35C13.38 107.45 14.23 106.61 14.23 105.57C14.23 104.53 13.41 103.69 12.38 103.69Z" fill="url(#paint3_linear)"/>
<path d="M113.51 10.71L102.8 0H113.51V10.71Z" fill="url(#paint4_linear)"/>
</g>
<defs>
<linearGradient id="paint0_linear" x1="94.1755" y1="5.34379" x2="94.1755" y2="81.422" gradientUnits="userSpaceOnUse">
<stop stop-color="#F7C3DC"/>
<stop offset="0.1384" stop-color="#F6A45D"/>
<stop offset="0.4262" stop-color="#EE7787"/>
<stop offset="0.6888" stop-color="#A95EA1"/>
<stop offset="1" stop-color="#273067"/>
</linearGradient>
<linearGradient id="paint1_linear" x1="53.6484" y1="102.739" x2="53.6484" y2="34.0482" gradientUnits="userSpaceOnUse">
<stop stop-color="#F7C3DC"/>
<stop offset="0.1384" stop-color="#F6A45D"/>
<stop offset="0.4262" stop-color="#EE7787"/>
<stop offset="0.6888" stop-color="#A95EA1"/>
<stop offset="1" stop-color="#273067"/>
</linearGradient>
<linearGradient id="paint2_linear" x1="0" y1="55.1515" x2="116.109" y2="55.1515" gradientUnits="userSpaceOnUse">
<stop stop-color="#F7C3DC"/>
<stop offset="0.1384" stop-color="#F6A45D"/>
<stop offset="0.4262" stop-color="#EE7787"/>
<stop offset="0.6888" stop-color="#A95EA1"/>
<stop offset="1" stop-color="#273067"/>
</linearGradient>
<linearGradient id="paint3_linear" x1="4.3125" y1="54.7264" x2="117.046" y2="54.7264" gradientUnits="userSpaceOnUse">
<stop stop-color="#F7C3DC"/>
<stop offset="0.1384" stop-color="#F6A45D"/>
<stop offset="0.4262" stop-color="#EE7787"/>
<stop offset="0.6888" stop-color="#A95EA1"/>
<stop offset="1" stop-color="#273067"/>
</linearGradient>
<linearGradient id="paint4_linear" x1="102.796" y1="5.3555" x2="178.201" y2="5.3555" gradientUnits="userSpaceOnUse">
<stop stop-color="#F7C3DC"/>
<stop offset="0.1384" stop-color="#F6A45D"/>
<stop offset="0.4262" stop-color="#EE7787"/>
<stop offset="0.6888" stop-color="#A95EA1"/>
</linearGradient>
<clipPath id="clip0">
<rect width="117.05" height="107.44" fill="white"/>
</clipPath>
</defs>
</svg>
